<svg width="466" height="119" viewBox="0 0 466 119" fill="none" xmlns="http://www.w3.org/2000/svg">
<path d="M48 49.2053H55.0605C56.6621 49.2053 58.0146 49.4495 59.1182 49.9377C60.2314 50.426 61.0762 51.1487 61.6523 52.1057C62.2383 53.053 62.5312 54.22 62.5312 55.6067C62.5312 56.5833 62.3311 57.4768 61.9307 58.2874C61.54 59.0881 60.9736 59.7717 60.2314 60.3381C59.499 60.8948 58.6201 61.3098 57.5947 61.5833L56.8037 61.8909H50.168L50.1387 59.5911H55.1484C56.1641 59.5911 57.0088 59.4153 57.6826 59.0637C58.3564 58.7024 58.8643 58.219 59.2061 57.6135C59.5479 57.0081 59.7188 56.3391 59.7188 55.6067C59.7188 54.7864 59.5576 54.0686 59.2354 53.4534C58.9131 52.8381 58.4053 52.3645 57.7119 52.0325C57.0283 51.6907 56.1445 51.5198 55.0605 51.5198H50.8271V70.5334H48V49.2053ZM60.4658 70.5334L55.2803 60.8655L58.2246 60.8508L63.4834 70.3577V70.5334H60.4658Z" fill="#262624"/>
<path d="M65.3584 62.7844V62.4475C65.3584 61.3049 65.5244 60.2454 65.8564 59.2688C66.1885 58.2825 66.667 57.428 67.292 56.7053C67.917 55.9729 68.6738 55.4065 69.5625 55.0061C70.4512 54.5959 71.4473 54.3909 72.5508 54.3909C73.6641 54.3909 74.665 54.5959 75.5537 55.0061C76.4521 55.4065 77.2139 55.9729 77.8389 56.7053C78.4736 57.428 78.957 58.2825 79.2891 59.2688C79.6211 60.2454 79.7871 61.3049 79.7871 62.4475V62.7844C79.7871 63.927 79.6211 64.9866 79.2891 65.9631C78.957 66.9397 78.4736 67.7942 77.8389 68.5266C77.2139 69.2493 76.457 69.8157 75.5684 70.2258C74.6895 70.6262 73.6934 70.8264 72.5801 70.8264C71.4668 70.8264 70.4658 70.6262 69.5771 70.2258C68.6885 69.8157 67.9268 69.2493 67.292 68.5266C66.667 67.7942 66.1885 66.9397 65.8564 65.9631C65.5244 64.9866 65.3584 63.927 65.3584 62.7844ZM68.0684 62.4475V62.7844C68.0684 63.5754 68.1611 64.3225 68.3467 65.0256C68.5322 65.719 68.8105 66.3342 69.1816 66.8713C69.5625 67.4084 70.0361 67.8333 70.6025 68.1458C71.1689 68.4485 71.8281 68.5999 72.5801 68.5999C73.3223 68.5999 73.9717 68.4485 74.5283 68.1458C75.0947 67.8333 75.5635 67.4084 75.9346 66.8713C76.3057 66.3342 76.584 65.719 76.7695 65.0256C76.9648 64.3225 77.0625 63.5754 77.0625 62.7844V62.4475C77.0625 61.6663 76.9648 60.929 76.7695 60.2356C76.584 59.5325 76.3008 58.9124 75.9199 58.3752C75.5488 57.8284 75.0801 57.3987 74.5137 57.0862C73.957 56.7737 73.3027 56.6174 72.5508 56.6174C71.8086 56.6174 71.1543 56.7737 70.5879 57.0862C70.0312 57.3987 69.5625 57.8284 69.1816 58.3752C68.8105 58.9124 68.5322 59.5325 68.3467 60.2356C68.1611 60.929 68.0684 61.6663 68.0684 62.4475Z" fill="#262624"/>
<path d="M83.1709 48.0334H85.8955V67.4573L85.6611 70.5334H83.1709V48.0334ZM96.6035 62.4768V62.7844C96.6035 63.9368 96.4668 65.0061 96.1934 65.9924C95.9199 66.969 95.5195 67.8186 94.9922 68.5413C94.4648 69.2639 93.8203 69.8254 93.0586 70.2258C92.2969 70.6262 91.4229 70.8264 90.4365 70.8264C89.4307 70.8264 88.5469 70.6555 87.7852 70.3137C87.0332 69.9622 86.3984 69.4592 85.8809 68.8049C85.3633 68.1506 84.9482 67.3596 84.6357 66.4319C84.333 65.5042 84.123 64.4592 84.0059 63.2971V61.9495C84.123 60.7776 84.333 59.7278 84.6357 58.8C84.9482 57.8723 85.3633 57.0813 85.8809 56.427C86.3984 55.7629 87.0332 55.26 87.7852 54.9182C88.5371 54.5667 89.4111 54.3909 90.4072 54.3909C91.4033 54.3909 92.2871 54.5862 93.0586 54.9768C93.8301 55.3577 94.4746 55.9045 94.9922 56.6174C95.5195 57.3303 95.9199 58.1848 96.1934 59.1809C96.4668 60.1672 96.6035 61.2659 96.6035 62.4768ZM93.8789 62.7844V62.4768C93.8789 61.6858 93.8057 60.9436 93.6592 60.2502C93.5127 59.5471 93.2783 58.9319 92.9561 58.4045C92.6338 57.8674 92.209 57.4475 91.6816 57.1448C91.1543 56.8323 90.5049 56.676 89.7334 56.676C89.0498 56.676 88.4541 56.7932 87.9463 57.0276C87.4482 57.262 87.0234 57.5793 86.6719 57.9797C86.3203 58.3704 86.0322 58.8196 85.8076 59.3274C85.5928 59.8254 85.4316 60.343 85.3242 60.8801V64.4104C85.4805 65.094 85.7344 65.7532 86.0859 66.3879C86.4473 67.0129 86.9258 67.5256 87.5215 67.926C88.127 68.3264 88.874 68.5266 89.7627 68.5266C90.4951 68.5266 91.1201 68.3801 91.6377 68.0872C92.165 67.7844 92.5898 67.3694 92.9121 66.842C93.2441 66.3147 93.4883 65.7043 93.6445 65.011C93.8008 64.3176 93.8789 63.5754 93.8789 62.7844Z" fill="#262624"/>
<path d="M99.3135 62.7844V62.4475C99.3135 61.3049 99.4795 60.2454 99.8115 59.2688C100.144 58.2825 100.622 57.428 101.247 56.7053C101.872 55.9729 102.629 55.4065 103.518 55.0061C104.406 54.5959 105.402 54.3909 106.506 54.3909C107.619 54.3909 108.62 54.5959 109.509 55.0061C110.407 55.4065 111.169 55.9729 111.794 56.7053C112.429 57.428 112.912 58.2825 113.244 59.2688C113.576 60.2454 113.742 61.3049 113.742 62.4475V62.7844C113.742 63.927 113.576 64.9866 113.244 65.9631C112.912 66.9397 112.429 67.7942 111.794 68.5266C111.169 69.2493 110.412 69.8157 109.523 70.2258C108.645 70.6262 107.648 70.8264 106.535 70.8264C105.422 70.8264 104.421 70.6262 103.532 70.2258C102.644 69.8157 101.882 69.2493 101.247 68.5266C100.622 67.7942 100.144 66.9397 99.8115 65.9631C99.4795 64.9866 99.3135 63.927 99.3135 62.7844ZM102.023 62.4475V62.7844C102.023 63.5754 102.116 64.3225 102.302 65.0256C102.487 65.719 102.766 66.3342 103.137 66.8713C103.518 67.4084 103.991 67.8333 104.558 68.1458C105.124 68.4485 105.783 68.5999 106.535 68.5999C107.277 68.5999 107.927 68.4485 108.483 68.1458C109.05 67.8333 109.519 67.4084 109.89 66.8713C110.261 66.3342 110.539 65.719 110.725 65.0256C110.92 64.3225 111.018 63.5754 111.018 62.7844V62.4475C111.018 61.6663 110.92 60.929 110.725 60.2356C110.539 59.5325 110.256 58.9124 109.875 58.3752C109.504 57.8284 109.035 57.3987 108.469 57.0862C107.912 56.7737 107.258 56.6174 106.506 56.6174C105.764 56.6174 105.109 56.7737 104.543 57.0862C103.986 57.3987 103.518 57.8284 103.137 58.3752C102.766 58.9124 102.487 59.5325 102.302 60.2356C102.116 60.929 102.023 61.6663 102.023 62.4475Z" fill="#262624"/>
<path d="M123.776 54.6838V56.7639H115.207V54.6838H123.776ZM118.107 50.8313H120.817V66.6077C120.817 67.1448 120.9 67.55 121.066 67.8235C121.232 68.0969 121.447 68.2776 121.711 68.3655C121.975 68.4534 122.258 68.4973 122.561 68.4973C122.785 68.4973 123.02 68.4778 123.264 68.4387C123.518 68.3899 123.708 68.3508 123.835 68.3215L123.85 70.5334C123.635 70.6018 123.352 70.6653 123 70.7239C122.658 70.7922 122.243 70.8264 121.755 70.8264C121.091 70.8264 120.48 70.6946 119.924 70.4309C119.367 70.1672 118.923 69.7278 118.591 69.1125C118.269 68.4875 118.107 67.6477 118.107 66.593V50.8313Z" fill="#262624"/>
<path d="M125.944 62.7844V62.4475C125.944 61.3049 126.11 60.2454 126.442 59.2688C126.774 58.2825 127.253 57.428 127.878 56.7053C128.503 55.9729 129.26 55.4065 130.148 55.0061C131.037 54.5959 132.033 54.3909 133.137 54.3909C134.25 54.3909 135.251 54.5959 136.14 55.0061C137.038 55.4065 137.8 55.9729 138.425 56.7053C139.06 57.428 139.543 58.2825 139.875 59.2688C140.207 60.2454 140.373 61.3049 140.373 62.4475V62.7844C140.373 63.927 140.207 64.9866 139.875 65.9631C139.543 66.9397 139.06 67.7942 138.425 68.5266C137.8 69.2493 137.043 69.8157 136.154 70.2258C135.275 70.6262 134.279 70.8264 133.166 70.8264C132.053 70.8264 131.052 70.6262 130.163 70.2258C129.274 69.8157 128.513 69.2493 127.878 68.5266C127.253 67.7942 126.774 66.9397 126.442 65.9631C126.11 64.9866 125.944 63.927 125.944 62.7844ZM128.654 62.4475V62.7844C128.654 63.5754 128.747 64.3225 128.933 65.0256C129.118 65.719 129.396 66.3342 129.768 66.8713C130.148 67.4084 130.622 67.8333 131.188 68.1458C131.755 68.4485 132.414 68.5999 133.166 68.5999C133.908 68.5999 134.558 68.4485 135.114 68.1458C135.681 67.8333 136.149 67.4084 136.521 66.8713C136.892 66.3342 137.17 65.719 137.355 65.0256C137.551 64.3225 137.648 63.5754 137.648 62.7844V62.4475C137.648 61.6663 137.551 60.929 137.355 60.2356C137.17 59.5325 136.887 58.9124 136.506 58.3752C136.135 57.8284 135.666 57.3987 135.1 57.0862C134.543 56.7737 133.889 56.6174 133.137 56.6174C132.395 56.6174 131.74 56.7737 131.174 57.0862C130.617 57.3987 130.148 57.8284 129.768 58.3752C129.396 58.9124 129.118 59.5325 128.933 60.2356C128.747 60.929 128.654 61.6663 128.654 62.4475Z" fill="#262624"/>
<path d="M245.733 60.9L248.403 60.45L252.843 68.34C252.983 68.58 253.143 68.76 253.323 68.88C253.523 69 253.753 69.08 254.013 69.12C254.293 69.16 254.593 69.18 254.913 69.18H255.183V70.56H250.773L245.733 60.9ZM242.013 68.88C242.013 68.94 242.083 68.99 242.223 69.03C242.363 69.05 242.543 69.08 242.763 69.12C243.003 69.14 243.253 69.16 243.513 69.18C243.793 69.18 244.063 69.18 244.323 69.18H244.713V70.56H236.373V69.18H236.703C237.423 69.18 238.023 69.11 238.503 68.97C238.983 68.83 239.223 68.54 239.223 68.1V51.72C239.223 51.28 238.983 50.99 238.503 50.85C238.023 50.71 237.423 50.64 236.703 50.64H236.373V49.26H245.013C246.633 49.26 248.013 49.52 249.153 50.04C250.313 50.54 251.203 51.25 251.823 52.17C252.443 53.09 252.753 54.15 252.753 55.35C252.753 56.35 252.543 57.24 252.123 58.02C251.703 58.8 251.103 59.47 250.323 60.03C249.543 60.57 248.603 60.96 247.503 61.2C247.243 61.26 246.963 61.31 246.663 61.35C246.383 61.39 246.083 61.42 245.763 61.44C245.463 61.46 245.153 61.47 244.833 61.47H241.413V59.85H244.833C245.973 59.85 246.903 59.67 247.623 59.31C248.343 58.95 248.873 58.44 249.213 57.78C249.573 57.1 249.753 56.29 249.753 55.35C249.753 54.45 249.573 53.67 249.213 53.01C248.853 52.35 248.313 51.85 247.593 51.51C246.893 51.15 246.013 50.97 244.953 50.97H242.013V68.88Z" fill="#262624"/>
<path d="M272.454 62.94C272.454 64.48 272.114 65.85 271.434 67.05C270.754 68.25 269.824 69.19 268.644 69.87C267.464 70.53 266.114 70.86 264.594 70.86C263.094 70.86 261.744 70.53 260.544 69.87C259.364 69.19 258.434 68.25 257.754 67.05C257.094 65.85 256.764 64.48 256.764 62.94C256.764 61.78 256.954 60.71 257.334 59.73C257.714 58.75 258.254 57.91 258.954 57.21C259.674 56.51 260.504 55.97 261.444 55.59C262.404 55.19 263.454 54.99 264.594 54.99C265.734 54.99 266.774 55.19 267.714 55.59C268.674 55.97 269.504 56.51 270.204 57.21C270.924 57.91 271.474 58.75 271.854 59.73C272.254 60.71 272.454 61.78 272.454 62.94ZM259.584 62.94C259.584 64.18 259.784 65.28 260.184 66.24C260.604 67.18 261.184 67.91 261.924 68.43C262.684 68.95 263.574 69.21 264.594 69.21C265.654 69.21 266.554 68.95 267.294 68.43C268.034 67.91 268.604 67.18 269.004 66.24C269.424 65.28 269.634 64.18 269.634 62.94C269.634 61.66 269.424 60.55 269.004 59.61C268.604 58.67 268.034 57.94 267.294 57.42C266.554 56.9 265.654 56.64 264.594 56.64C263.574 56.64 262.684 56.9 261.924 57.42C261.184 57.94 260.604 58.67 260.184 59.61C259.784 60.55 259.584 61.66 259.584 62.94Z" fill="#262624"/>
<path d="M284.554 70.86C283.754 70.86 283.034 70.74 282.394 70.5C281.754 70.26 281.164 69.9 280.624 69.42C280.084 68.92 279.564 68.28 279.064 67.5L279.124 65.07C279.584 65.99 280.084 66.76 280.624 67.38C281.164 68 281.754 68.46 282.394 68.76C283.034 69.06 283.724 69.21 284.464 69.21C285.184 69.21 285.824 69.06 286.384 68.76C286.944 68.44 287.404 68 287.764 67.44C288.144 66.88 288.424 66.21 288.604 65.43C288.804 64.65 288.904 63.79 288.904 62.85C288.904 61.89 288.804 61.03 288.604 60.27C288.424 59.51 288.154 58.86 287.794 58.32C287.434 57.78 286.984 57.37 286.444 57.09C285.924 56.81 285.304 56.67 284.584 56.67C283.804 56.67 283.084 56.84 282.424 57.18C281.764 57.5 281.164 57.99 280.624 58.65C280.084 59.29 279.584 60.09 279.124 61.05L279.064 58.74C279.604 57.9 280.154 57.2 280.714 56.64C281.274 56.08 281.874 55.67 282.514 55.41C283.174 55.13 283.934 54.99 284.794 54.99C286.174 54.99 287.384 55.32 288.424 55.98C289.464 56.62 290.274 57.53 290.854 58.71C291.434 59.87 291.724 61.25 291.724 62.85C291.724 64.43 291.424 65.82 290.824 67.02C290.224 68.22 289.384 69.16 288.304 69.84C287.244 70.52 285.994 70.86 284.554 70.86ZM276.994 51.24C276.994 50.94 276.914 50.71 276.754 50.55C276.594 50.39 276.354 50.26 276.034 50.16C275.714 50.06 275.294 49.97 274.774 49.89L274.444 49.83V48.48H279.664V66.99L279.364 67.38L278.734 70.65H276.994V51.24Z" fill="#262624"/>
<path d="M310.13 62.94C310.13 64.48 309.79 65.85 309.11 67.05C308.43 68.25 307.5 69.19 306.32 69.87C305.14 70.53 303.79 70.86 302.27 70.86C300.77 70.86 299.42 70.53 298.22 69.87C297.04 69.19 296.11 68.25 295.43 67.05C294.77 65.85 294.44 64.48 294.44 62.94C294.44 61.78 294.63 60.71 295.01 59.73C295.39 58.75 295.93 57.91 296.63 57.21C297.35 56.51 298.18 55.97 299.12 55.59C300.08 55.19 301.13 54.99 302.27 54.99C303.41 54.99 304.45 55.19 305.39 55.59C306.35 55.97 307.18 56.51 307.88 57.21C308.6 57.91 309.15 58.75 309.53 59.73C309.93 60.71 310.13 61.78 310.13 62.94ZM297.26 62.94C297.26 64.18 297.46 65.28 297.86 66.24C298.28 67.18 298.86 67.91 299.6 68.43C300.36 68.95 301.25 69.21 302.27 69.21C303.33 69.21 304.23 68.95 304.97 68.43C305.71 67.91 306.28 67.18 306.68 66.24C307.1 65.28 307.31 64.18 307.31 62.94C307.31 61.66 307.1 60.55 306.68 59.61C306.28 58.67 305.71 57.94 304.97 57.42C304.23 56.9 303.33 56.64 302.27 56.64C301.25 56.64 300.36 56.9 299.6 57.42C298.86 57.94 298.28 58.67 297.86 59.61C297.46 60.55 297.26 61.66 297.26 62.94Z" fill="#262624"/>
<path d="M311.759 56.94V55.44H311.909C312.509 55.44 313.019 55.4 313.439 55.32C313.879 55.22 314.209 55.06 314.429 54.84C314.649 54.62 314.759 54.3 314.759 53.88L316.619 55.29H321.659V56.94H311.759ZM317.189 65.43C317.189 66.31 317.299 67.02 317.519 67.56C317.759 68.1 318.079 68.5 318.479 68.76C318.899 69 319.389 69.12 319.949 69.12C320.369 69.12 320.759 69.08 321.119 69C321.479 68.92 321.789 68.84 322.049 68.76V70.41C321.869 70.49 321.649 70.56 321.389 70.62C321.149 70.7 320.879 70.76 320.579 70.8C320.299 70.84 319.999 70.86 319.679 70.86C318.799 70.86 317.959 70.7 317.159 70.38C316.379 70.06 315.739 69.51 315.239 68.73C314.759 67.93 314.519 66.83 314.519 65.43V55.74L314.759 55.53V51.12H317.189V65.43Z" fill="#262624"/>
<path d="M339.398 62.94C339.398 64.48 339.058 65.85 338.378 67.05C337.698 68.25 336.768 69.19 335.588 69.87C334.408 70.53 333.058 70.86 331.538 70.86C330.038 70.86 328.688 70.53 327.488 69.87C326.308 69.19 325.378 68.25 324.698 67.05C324.038 65.85 323.708 64.48 323.708 62.94C323.708 61.78 323.898 60.71 324.278 59.73C324.658 58.75 325.198 57.91 325.898 57.21C326.618 56.51 327.448 55.97 328.388 55.59C329.348 55.19 330.398 54.99 331.538 54.99C332.678 54.99 333.718 55.19 334.658 55.59C335.618 55.97 336.448 56.51 337.148 57.21C337.868 57.91 338.418 58.75 338.798 59.73C339.198 60.71 339.398 61.78 339.398 62.94ZM326.528 62.94C326.528 64.18 326.728 65.28 327.128 66.24C327.548 67.18 328.128 67.91 328.868 68.43C329.628 68.95 330.518 69.21 331.538 69.21C332.598 69.21 333.498 68.95 334.238 68.43C334.978 67.91 335.548 67.18 335.948 66.24C336.368 65.28 336.578 64.18 336.578 62.94C336.578 61.66 336.368 60.55 335.948 59.61C335.548 58.67 334.978 57.94 334.238 57.42C333.498 56.9 332.598 56.64 331.538 56.64C330.518 56.64 329.628 56.9 328.868 57.42C328.128 57.94 327.548 58.67 327.128 59.61C326.728 60.55 326.528 61.66 326.528 62.94Z" fill="#262624"/>
<path d="M358.336 69.12C359.236 69.12 360.016 68.99 360.676 68.73C361.336 68.47 361.846 68.06 362.206 67.5C362.586 66.94 362.776 66.23 362.776 65.37C362.776 64.59 362.616 63.94 362.296 63.42C361.976 62.9 361.536 62.48 360.976 62.16C360.436 61.82 359.816 61.54 359.116 61.32C358.436 61.08 357.726 60.86 356.986 60.66C356.186 60.44 355.386 60.19 354.586 59.91C353.806 59.63 353.096 59.26 352.456 58.8C351.836 58.34 351.336 57.76 350.956 57.06C350.576 56.36 350.386 55.48 350.386 54.42C350.386 53.3 350.666 52.34 351.226 51.54C351.806 50.72 352.566 50.09 353.506 49.65C354.466 49.19 355.516 48.96 356.656 48.96C357.576 48.96 358.436 49.09 359.236 49.35C360.036 49.61 360.766 50.06 361.426 50.7C362.106 51.34 362.676 52.25 363.136 53.43L362.056 53.49L362.506 49.26H364.156V54.84H362.326C362.006 53.96 361.576 53.22 361.036 52.62C360.516 52 359.906 51.52 359.206 51.18C358.506 50.84 357.746 50.67 356.926 50.67C356.066 50.67 355.336 50.81 354.736 51.09C354.136 51.37 353.676 51.77 353.356 52.29C353.036 52.81 352.876 53.43 352.876 54.15C352.876 54.83 353.036 55.4 353.356 55.86C353.676 56.32 354.106 56.7 354.646 57C355.186 57.3 355.806 57.56 356.506 57.78C357.206 57.98 357.926 58.18 358.666 58.38C359.506 58.6 360.326 58.86 361.126 59.16C361.926 59.44 362.646 59.81 363.286 60.27C363.946 60.73 364.466 61.32 364.846 62.04C365.226 62.76 365.416 63.66 365.416 64.74C365.416 66.04 365.096 67.15 364.456 68.07C363.816 68.99 362.966 69.69 361.906 70.17C360.866 70.63 359.716 70.86 358.456 70.86C357.316 70.86 356.216 70.68 355.156 70.32C354.116 69.94 353.186 69.35 352.366 68.55C351.566 67.75 350.946 66.69 350.506 65.37L351.856 65.58L351.406 70.56H349.636V63.93H351.466C351.806 64.97 352.306 65.88 352.966 66.66C353.626 67.44 354.416 68.05 355.336 68.49C356.256 68.91 357.256 69.12 358.336 69.12Z" fill="#262624"/>
<path d="M371.408 63.06C371.408 64.02 371.528 64.89 371.768 65.67C372.028 66.43 372.388 67.08 372.848 67.62C373.328 68.14 373.878 68.54 374.498 68.82C375.118 69.08 375.788 69.21 376.508 69.21C377.328 69.21 378.038 69.05 378.638 68.73C379.238 68.41 379.738 68.02 380.138 67.56C380.558 67.08 380.908 66.61 381.188 66.15L382.568 67.35C382.188 67.99 381.708 68.58 381.128 69.12C380.568 69.66 379.898 70.09 379.118 70.41C378.358 70.71 377.468 70.86 376.448 70.86C374.988 70.86 373.668 70.54 372.488 69.9C371.328 69.26 370.398 68.35 369.698 67.17C369.018 65.99 368.678 64.6 368.678 63C368.678 61.42 368.998 60.03 369.638 58.83C370.298 57.63 371.168 56.69 372.248 56.01C373.348 55.33 374.568 54.99 375.908 54.99C377.008 54.99 377.968 55.17 378.788 55.53C379.628 55.89 380.328 56.43 380.888 57.15C381.468 57.85 381.908 58.74 382.208 59.82C382.508 60.88 382.658 62.12 382.658 63.54H370.868L370.838 61.92H380.648L379.808 62.55C379.788 61.55 379.698 60.68 379.538 59.94C379.378 59.2 379.138 58.59 378.818 58.11C378.498 57.61 378.098 57.24 377.618 57C377.138 56.76 376.568 56.64 375.908 56.64C375.288 56.64 374.698 56.79 374.138 57.09C373.598 57.39 373.118 57.82 372.698 58.38C372.298 58.92 371.978 59.59 371.738 60.39C371.518 61.17 371.408 62.06 371.408 63.06Z" fill="#262624"/>
<path d="M395.374 55.08V57.75C395.234 57.69 395.064 57.65 394.864 57.63C394.684 57.59 394.494 57.56 394.294 57.54C394.094 57.52 393.904 57.51 393.724 57.51C393.184 57.51 392.714 57.59 392.314 57.75C391.914 57.89 391.564 58.11 391.264 58.41C390.964 58.71 390.684 59.09 390.424 59.55C390.164 59.99 389.884 60.53 389.584 61.17L389.554 59.28C389.874 58.42 390.254 57.68 390.694 57.06C391.154 56.42 391.684 55.92 392.284 55.56C392.904 55.18 393.594 54.99 394.354 54.99C394.554 54.99 394.744 55 394.924 55.02C395.124 55.02 395.274 55.04 395.374 55.08ZM384.904 70.56V69.24H384.964C385.664 69.24 386.244 69.17 386.704 69.03C387.164 68.89 387.394 68.6 387.394 68.16V58.05C387.394 57.75 387.314 57.53 387.154 57.39C386.994 57.23 386.754 57.1 386.434 57C386.114 56.9 385.704 56.8 385.204 56.7L384.904 56.64V55.29H389.794V59.67L390.064 59.4V68.25C390.064 68.55 390.204 68.77 390.484 68.91C390.784 69.05 391.124 69.14 391.504 69.18C391.884 69.22 392.224 69.24 392.524 69.24H393.034V70.56H384.904Z" fill="#262624"/>
<path d="M400.958 51.93C400.438 51.93 399.998 51.77 399.638 51.45C399.298 51.11 399.128 50.66 399.128 50.1C399.128 49.54 399.298 49.1 399.638 48.78C399.998 48.46 400.438 48.3 400.958 48.3C401.478 48.3 401.908 48.46 402.248 48.78C402.608 49.1 402.788 49.54 402.788 50.1C402.788 50.66 402.608 51.11 402.248 51.45C401.908 51.77 401.478 51.93 400.958 51.93ZM402.428 55.29V68.16C402.428 68.6 402.658 68.89 403.118 69.03C403.598 69.17 404.198 69.24 404.918 69.24H404.948V70.56H397.268V69.24H397.298C397.998 69.24 398.578 69.17 399.038 69.03C399.518 68.89 399.758 68.6 399.758 68.16V58.05C399.758 57.61 399.578 57.31 399.218 57.15C398.858 56.99 398.308 56.84 397.568 56.7L397.238 56.64V55.29H402.428Z" fill="#262624"/>
<path d="M406.759 55.29H416.899V56.94H406.759V55.29ZM417.889 48.27V50.1C417.569 50 417.209 49.9 416.809 49.8C416.409 49.68 415.979 49.62 415.519 49.62C414.939 49.62 414.419 49.72 413.959 49.92C413.519 50.12 413.169 50.5 412.909 51.06C412.669 51.6 412.549 52.38 412.549 53.4V68.91C412.549 68.99 412.669 69.06 412.909 69.12C413.169 69.16 413.509 69.19 413.929 69.21C414.369 69.23 414.859 69.24 415.399 69.24H415.759V70.56H406.909V69.24H407.209C408.049 69.24 408.699 69.17 409.159 69.03C409.639 68.89 409.879 68.6 409.879 68.16V53.4C409.879 52.02 410.149 50.94 410.689 50.16C411.229 49.38 411.929 48.83 412.789 48.51C413.669 48.17 414.589 48 415.549 48C415.989 48 416.419 48.03 416.839 48.09C417.279 48.13 417.629 48.19 417.889 48.27Z" fill="#262624"/>
</svg>
