<svg width="384" height="188" viewBox="0 0 384 188" fill="none" xmlns="http://www.w3.org/2000/svg">
<path d="M24.448 44C24.4053 44 24.384 43.936 24.384 43.808C24.384 43.68 24.4053 43.616 24.448 43.616C25.2373 43.616 25.824 43.5627 26.208 43.456C26.6133 43.3493 26.88 43.136 27.008 42.816C27.1573 42.496 27.232 42.0267 27.232 41.408V26.592C27.232 25.9733 27.1573 25.5147 27.008 25.216C26.88 24.896 26.624 24.6827 26.24 24.576C25.856 24.448 25.2693 24.384 24.48 24.384C24.4373 24.384 24.416 24.32 24.416 24.192C24.416 24.064 24.4373 24 24.48 24H38.016C38.2293 24 38.336 24.096 38.336 24.288L38.4 28.448C38.4 28.512 38.336 28.5547 38.208 28.576C38.08 28.576 38.016 28.544 38.016 28.48C37.9307 27.264 37.568 26.3253 36.928 25.664C36.3093 25.0027 35.4773 24.672 34.432 24.672H31.904C30.8373 24.672 30.1333 24.8 29.792 25.056C29.4507 25.312 29.28 25.8347 29.28 26.624V41.28C29.28 41.92 29.3653 42.4107 29.536 42.752C29.728 43.072 30.1013 43.296 30.656 43.424C31.232 43.552 32.0747 43.616 33.184 43.616C33.248 43.616 33.28 43.68 33.28 43.808C33.28 43.936 33.248 44 33.184 44C32.48 44 31.7227 43.9893 30.912 43.968C30.1227 43.9467 29.2373 43.936 28.256 43.936C27.552 43.936 26.8693 43.9467 26.208 43.968C25.5467 43.9893 24.96 44 24.448 44Z" fill="#262624"/>
<path d="M38.2397 44.256C37.3011 44.256 36.8317 43.904 36.8317 43.2C36.8317 42.8587 36.9277 42.592 37.1198 42.4C37.3331 42.208 37.5677 42.112 37.8237 42.112C37.9517 42.112 38.0904 42.1333 38.2397 42.176C38.4104 42.1973 38.5704 42.208 38.7198 42.208C39.3171 42.208 39.8184 41.9307 40.2238 41.376C40.6504 40.8213 41.0024 40.1067 41.2798 39.232C41.5571 38.3573 41.7598 37.4293 41.8878 36.448C42.0158 35.4667 42.0798 34.5387 42.0798 33.664C42.0798 32.9813 41.9198 32.5547 41.5998 32.384C41.3011 32.192 40.6717 32.064 39.7118 32C39.6478 32 39.6158 31.9467 39.6158 31.84C39.6158 31.712 39.6478 31.648 39.7118 31.648C39.9038 31.648 40.2451 31.648 40.7358 31.648C41.2478 31.648 41.7918 31.648 42.3678 31.648C42.9651 31.648 43.4984 31.648 43.9678 31.648C44.4371 31.648 44.7358 31.648 44.8638 31.648H50.3678C50.4104 31.648 50.4317 31.712 50.4317 31.84C50.4317 31.968 50.4104 32.032 50.3678 32.032C49.8131 32.0533 49.3864 32.1173 49.0877 32.224C48.8104 32.3093 48.6077 32.5013 48.4797 32.8C48.3731 33.0987 48.3197 33.6 48.3197 34.304V41.408C48.3197 42.0693 48.3731 42.56 48.4797 42.88C48.5864 43.1787 48.7891 43.3707 49.0877 43.456C49.3864 43.52 49.8131 43.5733 50.3678 43.616C50.4104 43.616 50.4317 43.68 50.4317 43.808C50.4317 43.936 50.4104 44 50.3678 44C49.9411 44 49.4824 43.9893 48.9918 43.968C48.5011 43.9467 47.9998 43.936 47.4878 43.936C46.9331 43.936 46.3891 43.9467 45.8557 43.968C45.3437 43.9893 44.8851 44 44.4797 44C44.4157 44 44.3838 43.936 44.3838 43.808C44.3838 43.68 44.4157 43.616 44.4797 43.616C45.0557 43.5733 45.4824 43.52 45.7598 43.456C46.0584 43.3707 46.2611 43.1787 46.3678 42.88C46.4744 42.56 46.5278 42.0693 46.5278 41.408V34.24C46.5278 33.5787 46.5064 33.12 46.4638 32.864C46.4211 32.5867 46.2931 32.416 46.0798 32.352C45.8664 32.288 45.5038 32.256 44.9918 32.256H44.7997C44.2877 32.256 43.9038 32.3093 43.6478 32.416C43.4131 32.5013 43.2531 32.6827 43.1677 32.96C43.0824 33.2373 42.9971 33.6533 42.9118 34.208C42.8264 35.0187 42.7197 35.8827 42.5917 36.8C42.4637 37.7173 42.2931 38.6133 42.0798 39.488C41.8664 40.3627 41.5998 41.1627 41.2798 41.888C40.9598 42.592 40.5437 43.168 40.0317 43.616C39.5411 44.0427 38.9437 44.256 38.2397 44.256Z" fill="#262624"/>
<path d="M61.402 44.192C61.3167 44.2347 61.2313 44.256 61.146 44.256C60.8687 44.256 60.602 44.032 60.346 43.584C60.09 43.1147 59.962 42.4427 59.962 41.568V35.84C59.962 34.8373 59.866 34.0587 59.674 33.504C59.5033 32.9493 59.258 32.5653 58.938 32.352C58.6393 32.1387 58.298 32.032 57.914 32.032C57.3807 32.032 56.9433 32.1707 56.602 32.448C56.2607 32.704 56.0047 33.0347 55.834 33.44C55.6633 33.8453 55.546 34.2507 55.482 34.656C55.4607 34.9547 55.3647 35.232 55.194 35.488C55.0447 35.744 54.746 35.872 54.298 35.872C53.9567 35.872 53.69 35.7867 53.498 35.616C53.306 35.4453 53.21 35.2107 53.21 34.912C53.21 34.528 53.402 34.1333 53.786 33.728C54.17 33.3013 54.65 32.9173 55.226 32.576C55.8233 32.2133 56.442 31.9253 57.082 31.712C57.7433 31.4773 58.362 31.36 58.938 31.36C59.7487 31.36 60.4207 31.648 60.954 32.224C61.4873 32.7787 61.754 33.664 61.754 34.88V40.544C61.754 41.2907 61.85 41.8347 62.042 42.176C62.234 42.5173 62.5433 42.688 62.97 42.688C63.354 42.688 63.8873 42.5493 64.57 42.272C64.6767 42.2293 64.7513 42.272 64.794 42.4C64.8367 42.5067 64.8047 42.5813 64.698 42.624L61.402 44.192ZM55.13 44.224C54.4473 44.224 53.9353 44.0427 53.594 43.68C53.2527 43.296 53.082 42.8587 53.082 42.368C53.082 41.7707 53.3167 41.3013 53.786 40.96C54.2553 40.5973 55.0233 40.2347 56.09 39.872L60.282 38.368L60.378 38.72L56.666 40.128C56.1753 40.32 55.8233 40.5333 55.61 40.768C55.418 41.0027 55.322 41.3013 55.322 41.664C55.322 42.112 55.45 42.464 55.706 42.72C55.962 42.9547 56.2927 43.072 56.698 43.072C56.9327 43.072 57.1567 43.0507 57.37 43.008C57.5833 42.944 57.7967 42.8587 58.01 42.752L60.73 41.376L60.794 41.76L58.01 43.264C57.37 43.584 56.8367 43.8293 56.41 44C55.9833 44.1493 55.5567 44.224 55.13 44.224Z" fill="#262624"/>
<path d="M68.7603 31.68C69.3149 31.68 69.8909 31.6693 70.4883 31.648C71.1069 31.6053 71.7149 31.584 72.3123 31.584C73.5496 31.584 74.4989 31.7867 75.1603 32.192C75.8429 32.5973 76.1842 33.2053 76.1842 34.016C76.1842 35.168 75.3203 36.32 73.5923 37.472L73.1763 37.28C73.4963 36.9813 73.7416 36.64 73.9123 36.256C74.0829 35.8507 74.1683 35.3493 74.1683 34.752C74.1683 33.792 73.9336 33.0987 73.4642 32.672C73.0162 32.2453 72.3549 32.032 71.4803 32.032C70.7549 32.032 70.2643 32.1707 70.0083 32.448C69.7523 32.704 69.6242 33.3227 69.6242 34.304V41.408C69.6242 42.1547 69.7843 42.6987 70.1043 43.04C70.4456 43.3813 71.1389 43.552 72.1842 43.552C73.3149 43.552 74.1363 43.3173 74.6483 42.848C75.1816 42.3787 75.4482 41.7067 75.4482 40.832C75.4482 39.8933 75.1709 39.136 74.6162 38.56C74.0616 37.9627 73.1336 37.664 71.8322 37.664H68.8882L68.8563 37.152H72.9523C76.0029 37.152 77.5283 38.1333 77.5283 40.096C77.5283 41.248 77.0802 42.1973 76.1842 42.944C75.2882 43.6907 74.1469 44.064 72.7603 44.064C72.2483 44.064 71.5976 44.0427 70.8083 44C70.0403 43.9573 69.3576 43.936 68.7603 43.936C68.2269 43.936 67.7042 43.9467 67.1922 43.968C66.6802 43.9893 66.2109 44 65.7842 44C65.7202 44 65.6883 43.936 65.6883 43.808C65.6883 43.68 65.7202 43.616 65.7842 43.616C66.6589 43.616 67.2136 43.4773 67.4482 43.2C67.7042 42.9227 67.8322 42.3253 67.8322 41.408V34.24C67.8322 33.3013 67.7042 32.704 67.4482 32.448C67.2136 32.1707 66.6696 32.032 65.8162 32.032C65.7522 32.032 65.7202 31.968 65.7202 31.84C65.7202 31.712 65.7522 31.648 65.8162 31.648C66.2216 31.648 66.6802 31.6587 67.1922 31.68C67.7042 31.68 68.2269 31.68 68.7603 31.68Z" fill="#262624"/>
<path d="M82.633 38.144V37.504H91.241V38.144H82.633ZM81.801 41.408V34.24C81.801 33.3013 81.673 32.704 81.417 32.448C81.1823 32.1707 80.6383 32.032 79.785 32.032C79.721 32.032 79.689 31.968 79.689 31.84C79.689 31.712 79.721 31.648 79.785 31.648C80.1903 31.648 80.649 31.6587 81.161 31.68C81.673 31.7013 82.1957 31.712 82.729 31.712C83.241 31.712 83.753 31.7013 84.265 31.68C84.777 31.6587 85.2357 31.648 85.641 31.648C85.6837 31.648 85.705 31.712 85.705 31.84C85.705 31.968 85.6837 32.032 85.641 32.032C84.745 32.032 84.1797 32.1813 83.945 32.48C83.7103 32.7787 83.593 33.3867 83.593 34.304V41.408C83.593 42.3253 83.7103 42.9227 83.945 43.2C84.1797 43.4773 84.745 43.616 85.641 43.616C85.6837 43.616 85.705 43.68 85.705 43.808C85.705 43.936 85.6837 44 85.641 44C85.2143 44 84.745 43.9893 84.233 43.968C83.7423 43.9467 83.241 43.936 82.729 43.936C82.1957 43.936 81.673 43.9467 81.161 43.968C80.649 43.9893 80.1797 44 79.753 44C79.689 44 79.657 43.936 79.657 43.808C79.657 43.68 79.689 43.616 79.753 43.616C80.6277 43.616 81.1823 43.4773 81.417 43.2C81.673 42.9227 81.801 42.3253 81.801 41.408ZM90.409 41.408V34.24C90.409 33.3013 90.281 32.704 90.025 32.448C89.7903 32.1707 89.2463 32.032 88.393 32.032C88.329 32.032 88.297 31.968 88.297 31.84C88.297 31.712 88.329 31.648 88.393 31.648C88.7983 31.648 89.257 31.6587 89.769 31.68C90.281 31.7013 90.8037 31.712 91.337 31.712C91.849 31.712 92.361 31.7013 92.873 31.68C93.385 31.6587 93.8437 31.648 94.249 31.648C94.2917 31.648 94.313 31.712 94.313 31.84C94.313 31.968 94.2917 32.032 94.249 32.032C93.353 32.032 92.7877 32.1813 92.553 32.48C92.3183 32.7787 92.201 33.3867 92.201 34.304V41.408C92.201 42.3253 92.3183 42.9227 92.553 43.2C92.7877 43.4773 93.353 43.616 94.249 43.616C94.2917 43.616 94.313 43.68 94.313 43.808C94.313 43.936 94.2917 44 94.249 44C93.8223 44 93.353 43.9893 92.841 43.968C92.3503 43.9467 91.849 43.936 91.337 43.936C90.8037 43.936 90.2703 43.9467 89.737 43.968C89.225 43.9893 88.7663 44 88.361 44C88.297 44 88.265 43.936 88.265 43.808C88.265 43.68 88.297 43.616 88.361 43.616C89.2357 43.616 89.7903 43.4773 90.025 43.2C90.281 42.9227 90.409 42.3253 90.409 41.408Z" fill="#262624"/>
<path d="M105.277 44.192C105.192 44.2347 105.106 44.256 105.021 44.256C104.744 44.256 104.477 44.032 104.221 43.584C103.965 43.1147 103.837 42.4427 103.837 41.568V35.84C103.837 34.8373 103.741 34.0587 103.549 33.504C103.378 32.9493 103.133 32.5653 102.813 32.352C102.514 32.1387 102.173 32.032 101.789 32.032C101.256 32.032 100.818 32.1707 100.477 32.448C100.136 32.704 99.8797 33.0347 99.709 33.44C99.5383 33.8453 99.421 34.2507 99.357 34.656C99.3357 34.9547 99.2397 35.232 99.069 35.488C98.9197 35.744 98.621 35.872 98.173 35.872C97.8317 35.872 97.565 35.7867 97.373 35.616C97.181 35.4453 97.085 35.2107 97.085 34.912C97.085 34.528 97.277 34.1333 97.661 33.728C98.045 33.3013 98.525 32.9173 99.101 32.576C99.6983 32.2133 100.317 31.9253 100.957 31.712C101.618 31.4773 102.237 31.36 102.813 31.36C103.624 31.36 104.296 31.648 104.829 32.224C105.362 32.7787 105.629 33.664 105.629 34.88V40.544C105.629 41.2907 105.725 41.8347 105.917 42.176C106.109 42.5173 106.418 42.688 106.845 42.688C107.229 42.688 107.762 42.5493 108.445 42.272C108.552 42.2293 108.626 42.272 108.669 42.4C108.712 42.5067 108.68 42.5813 108.573 42.624L105.277 44.192ZM99.005 44.224C98.3223 44.224 97.8103 44.0427 97.469 43.68C97.1277 43.296 96.957 42.8587 96.957 42.368C96.957 41.7707 97.1917 41.3013 97.661 40.96C98.1303 40.5973 98.8983 40.2347 99.965 39.872L104.157 38.368L104.253 38.72L100.541 40.128C100.05 40.32 99.6983 40.5333 99.485 40.768C99.293 41.0027 99.197 41.3013 99.197 41.664C99.197 42.112 99.325 42.464 99.581 42.72C99.837 42.9547 100.168 43.072 100.573 43.072C100.808 43.072 101.032 43.0507 101.245 43.008C101.458 42.944 101.672 42.8587 101.885 42.752L104.605 41.376L104.669 41.76L101.885 43.264C101.245 43.584 100.712 43.8293 100.285 44C99.8583 44.1493 99.4317 44.224 99.005 44.224Z" fill="#262624"/>
<path d="M121.083 43.616C121.126 43.616 121.147 43.68 121.147 43.808C121.147 43.936 121.126 44 121.083 44C120.721 44 120.294 43.9893 119.803 43.968C119.334 43.9467 118.833 43.936 118.299 43.936C117.723 43.936 117.19 43.9467 116.699 43.968C116.23 43.9893 115.782 44 115.355 44C115.313 44 115.291 43.936 115.291 43.808C115.291 43.68 115.313 43.616 115.355 43.616C116.209 43.616 116.742 43.4773 116.955 43.2C117.19 42.9227 117.307 42.3253 117.307 41.408V37.824L117.819 37.888C117.222 37.888 116.678 37.984 116.187 38.176C115.718 38.3467 115.249 38.688 114.779 39.2C114.31 39.6907 113.809 40.4267 113.275 41.408C112.891 42.1333 112.593 42.688 112.379 43.072C112.166 43.4347 111.995 43.68 111.867 43.808C111.739 43.936 111.59 44 111.419 44H108.635C108.593 44 108.571 43.936 108.571 43.808C108.571 43.68 108.593 43.616 108.635 43.616C109.19 43.616 109.649 43.4667 110.011 43.168C110.374 42.848 110.673 42.4747 110.907 42.048C111.163 41.6 111.409 41.1733 111.643 40.768C112.113 39.9147 112.71 39.2213 113.435 38.688C114.161 38.1333 114.993 37.856 115.931 37.856L116.155 37.984C114.897 37.984 113.905 37.856 113.179 37.6C112.454 37.3227 111.942 36.9493 111.643 36.48C111.345 36.0107 111.195 35.4773 111.195 34.88C111.195 33.856 111.569 33.0453 112.315 32.448C113.083 31.8507 114.097 31.552 115.355 31.552C115.718 31.552 116.198 31.584 116.795 31.648C117.393 31.6907 117.894 31.712 118.299 31.712C118.833 31.712 119.323 31.7013 119.771 31.68C120.241 31.6587 120.667 31.648 121.051 31.648C121.094 31.648 121.115 31.712 121.115 31.84C121.115 31.968 121.094 32.032 121.051 32.032C120.262 32.032 119.739 32.1707 119.483 32.448C119.227 32.704 119.099 33.3013 119.099 34.24V41.408C119.099 42.3253 119.227 42.9227 119.483 43.2C119.761 43.4773 120.294 43.616 121.083 43.616ZM113.115 34.144C113.115 35.1253 113.361 35.936 113.851 36.576C114.342 37.216 115.078 37.536 116.059 37.536C116.358 37.536 116.689 37.5147 117.051 37.472C117.414 37.4293 117.702 37.3867 117.915 37.344L117.307 37.6V34.304C117.307 33.3227 117.179 32.6827 116.923 32.384C116.667 32.0853 116.134 31.936 115.323 31.936C113.851 31.936 113.115 32.672 113.115 34.144Z" fill="#262624"/>
<path d="M130.148 52.8C130.084 52.8 130.052 52.736 130.052 52.608C130.052 52.48 130.084 52.416 130.148 52.416C131.129 52.416 131.759 52.2773 132.036 52C132.335 51.7227 132.484 51.1253 132.484 50.208V34.24C132.484 33.344 132.303 32.7573 131.94 32.48C131.577 32.1813 130.863 32.032 129.796 32.032C129.732 32.032 129.7 31.968 129.7 31.84C129.7 31.712 129.732 31.648 129.796 31.648C130.329 31.648 130.831 31.648 131.3 31.648C131.791 31.648 132.228 31.648 132.612 31.648C133.017 31.648 133.369 31.648 133.668 31.648C133.903 31.648 134.063 31.7013 134.148 31.808C134.233 31.9147 134.276 32.1387 134.276 32.48V50.208C134.276 50.8053 134.351 51.264 134.5 51.584C134.671 51.904 134.98 52.1173 135.428 52.224C135.897 52.352 136.58 52.416 137.476 52.416C137.54 52.416 137.572 52.48 137.572 52.608C137.572 52.736 137.54 52.8 137.476 52.8C136.9 52.8 136.26 52.7893 135.556 52.768C134.873 52.7467 134.148 52.736 133.38 52.736C132.783 52.736 132.196 52.7467 131.62 52.768C131.065 52.7893 130.575 52.8 130.148 52.8ZM137.668 44.416C136.836 44.416 136.111 44.32 135.492 44.128C134.873 43.936 134.191 43.5733 133.444 43.04L133.924 41.28C134.479 41.984 135.108 42.5707 135.812 43.04C136.537 43.5093 137.476 43.744 138.628 43.744C139.737 43.744 140.665 43.2533 141.412 42.272C142.159 41.2907 142.532 39.904 142.532 38.112C142.532 36.256 142.116 34.848 141.284 33.888C140.452 32.928 139.46 32.448 138.308 32.448C137.348 32.448 136.516 32.7147 135.812 33.248C135.108 33.76 134.425 34.3787 133.764 35.104L133.476 34.848C134.564 33.5893 135.599 32.672 136.58 32.096C137.583 31.52 138.607 31.232 139.652 31.232C140.527 31.232 141.327 31.4667 142.052 31.936C142.799 32.384 143.396 33.0453 143.844 33.92C144.313 34.7947 144.548 35.8613 144.548 37.12C144.548 38.4213 144.324 39.5307 143.876 40.448C143.428 41.3653 142.852 42.1227 142.148 42.72C141.444 43.296 140.697 43.7227 139.908 44C139.119 44.2773 138.372 44.416 137.668 44.416Z" fill="#262624"/>
<path d="M152.928 44.384C151.606 44.384 150.496 44.096 149.6 43.52C148.704 42.9227 148.032 42.1547 147.584 41.216C147.136 40.2773 146.912 39.2853 146.912 38.24C146.912 36.9387 147.211 35.776 147.808 34.752C148.427 33.7067 149.248 32.8853 150.272 32.288C151.318 31.6693 152.491 31.36 153.792 31.36C154.966 31.36 155.862 31.648 156.48 32.224C157.12 32.7787 157.44 33.5467 157.44 34.528C157.44 34.7627 157.419 34.944 157.376 35.072C157.334 35.2 157.227 35.264 157.056 35.264H155.2C155.286 34.2187 155.094 33.4187 154.624 32.864C154.176 32.288 153.536 32 152.704 32C151.51 32 150.592 32.448 149.952 33.344C149.334 34.24 149.024 35.456 149.024 36.992C149.024 38.208 149.216 39.2853 149.6 40.224C150.006 41.1627 150.582 41.9093 151.328 42.464C152.096 42.9973 153.003 43.264 154.048 43.264C154.603 43.264 155.168 43.1787 155.744 43.008C156.32 42.8373 156.864 42.5707 157.376 42.208C157.419 42.1653 157.472 42.1973 157.536 42.304C157.622 42.3893 157.643 42.464 157.6 42.528C156.832 43.1893 156.064 43.6693 155.296 43.968C154.528 44.2453 153.739 44.384 152.928 44.384ZM148.448 35.328L148.416 34.912L155.712 34.752V35.264L148.448 35.328Z" fill="#262624"/>
<path d="M159.783 44C159.719 44 159.687 43.936 159.687 43.808C159.687 43.68 159.719 43.616 159.783 43.616C160.657 43.616 161.212 43.4773 161.447 43.2C161.681 42.9227 161.799 42.3253 161.799 41.408V34.24C161.799 33.3013 161.681 32.704 161.447 32.448C161.212 32.1707 160.668 32.032 159.815 32.032C159.751 32.032 159.719 31.968 159.719 31.84C159.719 31.712 159.751 31.648 159.815 31.648C160.199 31.648 160.647 31.6587 161.159 31.68C161.671 31.7013 162.204 31.712 162.759 31.712C163.356 31.712 163.932 31.7013 164.487 31.68C165.063 31.6587 165.564 31.648 165.991 31.648C166.055 31.648 166.087 31.712 166.087 31.84C166.087 31.968 166.055 32.032 165.991 32.032C164.988 32.032 164.337 32.1813 164.039 32.48C163.761 32.7573 163.623 33.3653 163.623 34.304V41.408C163.623 42.3253 163.74 42.9227 163.975 43.2C164.209 43.4773 164.764 43.616 165.639 43.616C165.681 43.616 165.703 43.68 165.703 43.808C165.703 43.936 165.681 44 165.639 44C165.233 44 164.775 43.9893 164.263 43.968C163.772 43.9467 163.271 43.936 162.759 43.936C162.204 43.936 161.671 43.9467 161.159 43.968C160.647 43.9893 160.188 44 159.783 44ZM169.991 44C169.905 44 169.831 43.9893 169.767 43.968C169.703 43.9253 169.617 43.8187 169.511 43.648C169.425 43.456 169.255 43.1573 168.999 42.752C168.764 42.3253 168.423 41.7173 167.975 40.928C167.463 40.0747 167.015 39.4347 166.631 39.008C166.268 38.56 165.895 38.2613 165.511 38.112C165.148 37.9413 164.689 37.856 164.135 37.856C163.751 37.856 163.281 37.888 162.727 37.952L162.695 37.376C163.1 37.3547 163.473 37.344 163.815 37.344C164.177 37.3227 164.508 37.3013 164.807 37.28C165.127 37.2587 165.393 37.248 165.607 37.248C166.332 37.248 166.897 37.3333 167.303 37.504C167.729 37.6533 168.124 37.9413 168.487 38.368C168.849 38.7947 169.297 39.4347 169.831 40.288C170.3 41.0133 170.684 41.6213 170.983 42.112C171.303 42.5813 171.644 42.944 172.007 43.2C172.391 43.456 172.903 43.5947 173.543 43.616C173.585 43.616 173.607 43.68 173.607 43.808C173.607 43.936 173.585 44 173.543 44H169.991ZM165.607 37.792V37.248C165.841 37.248 166.055 37.1733 166.247 37.024C166.439 36.8747 166.609 36.6827 166.759 36.448C166.908 36.2133 167.057 35.968 167.207 35.712C167.697 34.7947 168.113 34.016 168.455 33.376C168.817 32.7147 169.191 32.2133 169.575 31.872C169.959 31.5307 170.417 31.36 170.951 31.36C171.441 31.36 171.804 31.4773 172.039 31.712C172.295 31.9253 172.423 32.1813 172.423 32.48C172.423 32.8 172.305 33.088 172.071 33.344C171.857 33.5787 171.548 33.696 171.143 33.696C170.929 33.696 170.748 33.6533 170.599 33.568C170.471 33.4827 170.343 33.408 170.215 33.344C170.108 33.28 169.969 33.248 169.799 33.248C169.628 33.248 169.415 33.3867 169.159 33.664C168.924 33.9413 168.679 34.2827 168.423 34.688C168.167 35.0933 167.921 35.488 167.687 35.872C167.409 36.4267 167.1 36.8853 166.759 37.248C166.417 37.6107 166.033 37.792 165.607 37.792Z" fill="#262624"/>
<path d="M180.371 44.416C179.112 44.416 178.014 44.1067 177.075 43.488C176.136 42.8693 175.411 42.048 174.899 41.024C174.387 39.9787 174.131 38.8587 174.131 37.664C174.131 36.5547 174.334 35.5947 174.739 34.784C175.144 33.9733 175.688 33.312 176.371 32.8C177.054 32.2667 177.79 31.872 178.579 31.616C179.39 31.36 180.179 31.232 180.947 31.232C182.248 31.232 183.358 31.552 184.275 32.192C185.214 32.832 185.928 33.6533 186.419 34.656C186.91 35.6587 187.155 36.7147 187.155 37.824C187.155 39.1893 186.846 40.3627 186.227 41.344C185.608 42.3253 184.787 43.0827 183.763 43.616C182.739 44.1493 181.608 44.416 180.371 44.416ZM181.299 43.808C182.43 43.808 183.326 43.4133 183.987 42.624C184.648 41.8133 184.979 40.512 184.979 38.72C184.979 37.376 184.755 36.192 184.307 35.168C183.88 34.1227 183.283 33.312 182.515 32.736C181.747 32.1387 180.872 31.84 179.891 31.84C178.76 31.84 177.875 32.256 177.235 33.088C176.595 33.92 176.275 35.1147 176.275 36.672C176.275 37.9733 176.488 39.168 176.915 40.256C177.342 41.344 177.928 42.208 178.675 42.848C179.443 43.488 180.318 43.808 181.299 43.808Z" fill="#262624"/>
<path d="M191.107 40.672L191.587 32.352L192.227 32.448L191.747 40.672C191.683 41.7387 191.812 42.496 192.132 42.944C192.473 43.392 193.017 43.616 193.764 43.616C193.806 43.616 193.827 43.68 193.827 43.808C193.827 43.936 193.806 44 193.764 44C193.422 44 193.049 43.9893 192.643 43.968C192.259 43.9467 191.843 43.936 191.395 43.936C190.969 43.936 190.542 43.9467 190.115 43.968C189.71 43.9893 189.326 44 188.964 44C188.921 44 188.9 43.936 188.9 43.808C188.9 43.68 188.921 43.616 188.964 43.616C189.732 43.616 190.265 43.392 190.564 42.944C190.862 42.496 191.043 41.7387 191.107 40.672ZM205.764 43.616C205.806 43.616 205.827 43.68 205.827 43.808C205.827 43.936 205.806 44 205.764 44C205.337 44 204.867 43.9893 204.355 43.968C203.843 43.9467 203.332 43.936 202.82 43.936C202.308 43.936 201.838 43.9467 201.411 43.968C201.006 43.9893 200.622 44 200.26 44C200.196 44 200.163 43.936 200.163 43.808C200.163 43.68 200.196 43.616 200.26 43.616C200.964 43.616 201.422 43.4773 201.635 43.2C201.87 42.9227 201.955 42.3253 201.891 41.408L201.316 32.384L201.827 32.032L197.219 42.944C197.177 43.0293 197.092 43.072 196.964 43.072C196.836 43.072 196.75 43.0293 196.708 42.944L192.292 34.304C191.822 33.344 191.332 32.7253 190.82 32.448C190.329 32.1707 189.859 32.032 189.411 32.032C189.369 32.032 189.348 31.968 189.348 31.84C189.348 31.712 189.369 31.648 189.411 31.648C189.71 31.648 190.009 31.6587 190.307 31.68C190.606 31.68 190.852 31.68 191.044 31.68C191.342 31.68 191.62 31.68 191.876 31.68C192.132 31.6587 192.324 31.648 192.452 31.648C192.772 31.648 193.006 31.7547 193.156 31.968C193.305 32.1813 193.55 32.6187 193.891 33.28L197.827 40.96L196.964 42.048L200.995 32.448C201.102 32.192 201.241 32 201.411 31.872C201.603 31.7227 201.785 31.648 201.956 31.648C202.105 31.648 202.318 31.6587 202.596 31.68C202.873 31.68 203.182 31.68 203.523 31.68C203.929 31.68 204.249 31.68 204.484 31.68C204.74 31.6587 205.006 31.648 205.283 31.648C205.326 31.648 205.348 31.712 205.348 31.84C205.348 31.968 205.326 32.032 205.283 32.032C204.558 32.032 203.993 32.16 203.587 32.416C203.203 32.672 203.054 33.248 203.139 34.144L203.684 41.408C203.748 42.0267 203.822 42.496 203.908 42.816C204.014 43.136 204.206 43.3493 204.484 43.456C204.761 43.5627 205.188 43.616 205.764 43.616Z" fill="#262624"/>
<path d="M213.585 44.384C212.262 44.384 211.153 44.096 210.257 43.52C209.361 42.9227 208.688 42.1547 208.24 41.216C207.792 40.2773 207.568 39.2853 207.568 38.24C207.568 36.9387 207.867 35.776 208.464 34.752C209.083 33.7067 209.904 32.8853 210.928 32.288C211.974 31.6693 213.147 31.36 214.449 31.36C215.622 31.36 216.518 31.648 217.137 32.224C217.777 32.7787 218.096 33.5467 218.096 34.528C218.096 34.7627 218.075 34.944 218.033 35.072C217.99 35.2 217.883 35.264 217.712 35.264H215.857C215.942 34.2187 215.75 33.4187 215.281 32.864C214.833 32.288 214.193 32 213.361 32C212.166 32 211.249 32.448 210.609 33.344C209.99 34.24 209.68 35.456 209.68 36.992C209.68 38.208 209.873 39.2853 210.257 40.224C210.662 41.1627 211.238 41.9093 211.984 42.464C212.752 42.9973 213.659 43.264 214.704 43.264C215.259 43.264 215.824 43.1787 216.4 43.008C216.976 42.8373 217.521 42.5707 218.033 42.208C218.075 42.1653 218.129 42.1973 218.193 42.304C218.278 42.3893 218.299 42.464 218.257 42.528C217.489 43.1893 216.72 43.6693 215.952 43.968C215.184 44.2453 214.395 44.384 213.585 44.384ZM209.105 35.328L209.072 34.912L216.368 34.752V35.264L209.105 35.328Z" fill="#262624"/>
<path d="M223.383 38.144V37.504H231.991V38.144H223.383ZM222.551 41.408V34.24C222.551 33.3013 222.423 32.704 222.167 32.448C221.932 32.1707 221.388 32.032 220.535 32.032C220.471 32.032 220.439 31.968 220.439 31.84C220.439 31.712 220.471 31.648 220.535 31.648C220.94 31.648 221.399 31.6587 221.911 31.68C222.423 31.7013 222.946 31.712 223.479 31.712C223.991 31.712 224.503 31.7013 225.015 31.68C225.527 31.6587 225.986 31.648 226.391 31.648C226.434 31.648 226.455 31.712 226.455 31.84C226.455 31.968 226.434 32.032 226.391 32.032C225.495 32.032 224.93 32.1813 224.695 32.48C224.46 32.7787 224.343 33.3867 224.343 34.304V41.408C224.343 42.3253 224.46 42.9227 224.695 43.2C224.93 43.4773 225.495 43.616 226.391 43.616C226.434 43.616 226.455 43.68 226.455 43.808C226.455 43.936 226.434 44 226.391 44C225.964 44 225.495 43.9893 224.983 43.968C224.492 43.9467 223.991 43.936 223.479 43.936C222.946 43.936 222.423 43.9467 221.911 43.968C221.399 43.9893 220.93 44 220.503 44C220.439 44 220.407 43.936 220.407 43.808C220.407 43.68 220.439 43.616 220.503 43.616C221.378 43.616 221.932 43.4773 222.167 43.2C222.423 42.9227 222.551 42.3253 222.551 41.408ZM231.159 41.408V34.24C231.159 33.3013 231.031 32.704 230.775 32.448C230.54 32.1707 229.996 32.032 229.143 32.032C229.079 32.032 229.047 31.968 229.047 31.84C229.047 31.712 229.079 31.648 229.143 31.648C229.548 31.648 230.007 31.6587 230.519 31.68C231.031 31.7013 231.554 31.712 232.087 31.712C232.599 31.712 233.111 31.7013 233.623 31.68C234.135 31.6587 234.594 31.648 234.999 31.648C235.042 31.648 235.063 31.712 235.063 31.84C235.063 31.968 235.042 32.032 234.999 32.032C234.103 32.032 233.538 32.1813 233.303 32.48C233.068 32.7787 232.951 33.3867 232.951 34.304V41.408C232.951 42.3253 233.068 42.9227 233.303 43.2C233.538 43.4773 234.103 43.616 234.999 43.616C235.042 43.616 235.063 43.68 235.063 43.808C235.063 43.936 235.042 44 234.999 44C234.572 44 234.103 43.9893 233.591 43.968C233.1 43.9467 232.599 43.936 232.087 43.936C231.554 43.936 231.02 43.9467 230.487 43.968C229.975 43.9893 229.516 44 229.111 44C229.047 44 229.015 43.936 229.015 43.808C229.015 43.68 229.047 43.616 229.111 43.616C229.986 43.616 230.54 43.4773 230.775 43.2C231.031 42.9227 231.159 42.3253 231.159 41.408Z" fill="#262624"/>
<path d="M236.747 48.192C236.747 47.2533 236.726 46.496 236.683 45.92C236.662 45.3653 236.63 44.9173 236.587 44.576C236.566 44.2347 236.555 43.9467 236.555 43.712C236.555 43.52 236.619 43.4027 236.747 43.36C236.896 43.296 237.035 43.264 237.163 43.264C238.166 43.264 239.03 42.5707 239.755 41.184C240.502 39.7973 241.12 37.6853 241.611 34.848C241.739 34.0587 241.75 33.4507 241.643 33.024C241.536 32.5973 241.302 32.3093 240.939 32.16C240.576 32.0107 240.096 31.936 239.499 31.936C239.456 31.936 239.435 31.8827 239.435 31.776C239.435 31.648 239.456 31.584 239.499 31.584C239.734 31.584 240.086 31.5947 240.555 31.616C241.024 31.616 241.515 31.616 242.027 31.616C242.539 31.616 243.008 31.6267 243.435 31.648C243.883 31.648 244.182 31.648 244.331 31.648H250.315C250.358 31.648 250.379 31.712 250.379 31.84C250.379 31.968 250.358 32.032 250.315 32.032C249.654 32.032 249.152 32.096 248.811 32.224C248.491 32.352 248.278 32.576 248.171 32.896C248.064 33.216 248.011 33.6853 248.011 34.304V41.408C248.011 42.048 248.064 42.496 248.171 42.752C248.299 43.008 248.512 43.168 248.811 43.232C249.131 43.296 249.568 43.328 250.123 43.328C250.294 43.328 250.39 43.3493 250.411 43.392C250.432 43.4133 250.443 43.52 250.443 43.712C250.443 43.9253 250.422 44.2027 250.379 44.544C250.358 44.9067 250.326 45.376 250.283 45.952C250.262 46.528 250.251 47.2747 250.251 48.192C250.251 48.2773 250.187 48.32 250.059 48.32C249.952 48.32 249.899 48.2773 249.899 48.192C249.899 46.7627 249.707 45.7067 249.323 45.024C248.939 44.3413 248.246 44 247.243 44H240.139C239.179 44 238.432 44.3413 237.899 45.024C237.366 45.7067 237.099 46.7627 237.099 48.192C237.099 48.2773 237.035 48.32 236.907 48.32C236.8 48.32 236.747 48.2773 236.747 48.192ZM238.027 43.936L238.155 43.296H242.987C243.99 43.296 244.715 43.2747 245.163 43.232C245.611 43.168 245.888 43.008 245.995 42.752C246.123 42.4747 246.187 42.0267 246.187 41.408V34.24C246.187 33.5787 246.166 33.12 246.123 32.864C246.102 32.5867 245.974 32.416 245.739 32.352C245.526 32.288 245.142 32.256 244.587 32.256H244.203C243.819 32.256 243.51 32.32 243.275 32.448C243.04 32.5547 242.859 32.7573 242.731 33.056C242.624 33.3333 242.528 33.7173 242.443 34.208C242.144 35.8507 241.846 37.2373 241.547 38.368C241.248 39.4987 240.928 40.4267 240.587 41.152C240.267 41.8773 239.894 42.464 239.467 42.912C239.062 43.3387 238.582 43.68 238.027 43.936Z" fill="#262624"/>
<path d="M261.464 44.192C261.379 44.2347 261.294 44.256 261.208 44.256C260.931 44.256 260.664 44.032 260.408 43.584C260.152 43.1147 260.025 42.4427 260.025 41.568V35.84C260.025 34.8373 259.928 34.0587 259.736 33.504C259.566 32.9493 259.321 32.5653 259.001 32.352C258.702 32.1387 258.361 32.032 257.977 32.032C257.443 32.032 257.006 32.1707 256.665 32.448C256.323 32.704 256.067 33.0347 255.896 33.44C255.726 33.8453 255.608 34.2507 255.544 34.656C255.523 34.9547 255.427 35.232 255.257 35.488C255.107 35.744 254.809 35.872 254.361 35.872C254.019 35.872 253.753 35.7867 253.561 35.616C253.369 35.4453 253.273 35.2107 253.273 34.912C253.273 34.528 253.464 34.1333 253.848 33.728C254.232 33.3013 254.712 32.9173 255.288 32.576C255.886 32.2133 256.505 31.9253 257.145 31.712C257.806 31.4773 258.425 31.36 259.001 31.36C259.811 31.36 260.483 31.648 261.016 32.224C261.55 32.7787 261.816 33.664 261.816 34.88V40.544C261.816 41.2907 261.913 41.8347 262.105 42.176C262.297 42.5173 262.606 42.688 263.033 42.688C263.417 42.688 263.95 42.5493 264.633 42.272C264.739 42.2293 264.814 42.272 264.857 42.4C264.899 42.5067 264.867 42.5813 264.76 42.624L261.464 44.192ZM255.193 44.224C254.51 44.224 253.998 44.0427 253.656 43.68C253.315 43.296 253.145 42.8587 253.145 42.368C253.145 41.7707 253.379 41.3013 253.848 40.96C254.318 40.5973 255.086 40.2347 256.152 39.872L260.344 38.368L260.441 38.72L256.729 40.128C256.238 40.32 255.886 40.5333 255.673 40.768C255.481 41.0027 255.385 41.3013 255.385 41.664C255.385 42.112 255.512 42.464 255.768 42.72C256.024 42.9547 256.355 43.072 256.76 43.072C256.995 43.072 257.219 43.0507 257.432 43.008C257.646 42.944 257.859 42.8587 258.072 42.752L260.792 41.376L260.857 41.76L258.072 43.264C257.432 43.584 256.899 43.8293 256.473 44C256.046 44.1493 255.619 44.224 255.193 44.224Z" fill="#262624"/>
<path d="M276.663 44H265.847C265.783 44 265.751 43.936 265.751 43.808C265.751 43.68 265.783 43.616 265.847 43.616C266.7 43.616 267.244 43.4667 267.479 43.168C267.735 42.8693 267.863 42.2613 267.863 41.344V34.24C267.863 33.3013 267.735 32.704 267.479 32.448C267.244 32.1707 266.7 32.032 265.847 32.032C265.783 32.032 265.751 31.968 265.751 31.84C265.751 31.712 265.783 31.648 265.847 31.648C266.252 31.648 266.7 31.6587 267.191 31.68C267.703 31.7013 268.204 31.712 268.695 31.712C269.228 31.712 269.751 31.7013 270.263 31.68C270.775 31.6587 271.233 31.648 271.639 31.648C271.681 31.648 271.703 31.712 271.703 31.84C271.703 31.968 271.681 32.032 271.639 32.032C270.785 32.032 270.241 32.1707 270.007 32.448C269.772 32.704 269.655 33.3013 269.655 34.24V41.408C269.655 42.0267 269.676 42.4747 269.719 42.752C269.761 43.0293 269.889 43.2 270.103 43.264C270.316 43.328 270.668 43.36 271.159 43.36H274.775C275.308 43.36 275.681 43.328 275.895 43.264C276.129 43.2 276.268 43.0293 276.311 42.752C276.353 42.4533 276.375 41.984 276.375 41.344V34.24C276.375 33.3013 276.247 32.704 275.991 32.448C275.756 32.1707 275.223 32.032 274.391 32.032C274.348 32.032 274.327 31.968 274.327 31.84C274.327 31.712 274.348 31.648 274.391 31.648C274.796 31.648 275.233 31.6587 275.703 31.68C276.193 31.7013 276.695 31.712 277.207 31.712C277.761 31.712 278.295 31.7013 278.807 31.68C279.319 31.6587 279.788 31.648 280.215 31.648C280.279 31.648 280.311 31.712 280.311 31.84C280.311 31.968 280.279 32.032 280.215 32.032C279.319 32.032 278.743 32.1707 278.487 32.448C278.252 32.704 278.135 33.3013 278.135 34.24V41.408C278.135 41.9413 278.177 42.3467 278.263 42.624C278.348 42.9013 278.54 43.0933 278.839 43.2C279.137 43.2853 279.596 43.328 280.215 43.328C280.385 43.328 280.481 43.3493 280.503 43.392C280.545 43.4133 280.567 43.52 280.567 43.712C280.567 43.9467 280.545 44.2133 280.503 44.512C280.481 44.832 280.449 45.2693 280.407 45.824C280.385 46.4 280.375 47.1893 280.375 48.192C280.375 48.2773 280.311 48.32 280.183 48.32C280.055 48.32 279.991 48.2773 279.991 48.192C279.991 47.104 279.895 46.2507 279.703 45.632C279.532 45.0347 279.201 44.608 278.711 44.352C278.241 44.1173 277.559 44 276.663 44Z" fill="#262624"/>
<path d="M285.262 42.464L284.814 42.016L293.486 33.312L293.934 33.76L285.262 42.464ZM284.27 41.408V34.24C284.27 33.3013 284.142 32.704 283.886 32.448C283.651 32.1707 283.107 32.032 282.254 32.032C282.19 32.032 282.158 31.968 282.158 31.84C282.158 31.712 282.19 31.648 282.254 31.648C282.659 31.648 283.118 31.6587 283.63 31.68C284.142 31.7013 284.664 31.712 285.198 31.712C285.71 31.712 286.222 31.7013 286.734 31.68C287.246 31.6587 287.704 31.648 288.11 31.648C288.152 31.648 288.174 31.712 288.174 31.84C288.174 31.968 288.152 32.032 288.11 32.032C287.214 32.032 286.648 32.1813 286.414 32.48C286.179 32.7787 286.062 33.3867 286.062 34.304V41.408C286.062 42.3253 286.179 42.9227 286.414 43.2C286.648 43.4773 287.214 43.616 288.11 43.616C288.152 43.616 288.174 43.68 288.174 43.808C288.174 43.936 288.152 44 288.11 44C287.683 44 287.214 43.9893 286.702 43.968C286.211 43.9467 285.71 43.936 285.198 43.936C284.664 43.936 284.142 43.9467 283.63 43.968C283.118 43.9893 282.648 44 282.222 44C282.158 44 282.126 43.936 282.126 43.808C282.126 43.68 282.158 43.616 282.222 43.616C283.096 43.616 283.651 43.4773 283.886 43.2C284.142 42.9227 284.27 42.3253 284.27 41.408ZM292.878 41.408V34.24C292.878 33.3013 292.75 32.704 292.494 32.448C292.259 32.1707 291.715 32.032 290.862 32.032C290.798 32.032 290.766 31.968 290.766 31.84C290.766 31.712 290.798 31.648 290.862 31.648C291.267 31.648 291.726 31.6587 292.238 31.68C292.75 31.7013 293.272 31.712 293.806 31.712C294.318 31.712 294.83 31.7013 295.342 31.68C295.854 31.6587 296.312 31.648 296.718 31.648C296.76 31.648 296.782 31.712 296.782 31.84C296.782 31.968 296.76 32.032 296.718 32.032C295.822 32.032 295.256 32.1813 295.022 32.48C294.787 32.7787 294.67 33.3867 294.67 34.304V41.408C294.67 42.3253 294.787 42.9227 295.022 43.2C295.256 43.4773 295.822 43.616 296.718 43.616C296.76 43.616 296.782 43.68 296.782 43.808C296.782 43.936 296.76 44 296.718 44C296.291 44 295.822 43.9893 295.31 43.968C294.819 43.9467 294.318 43.936 293.806 43.936C293.272 43.936 292.739 43.9467 292.206 43.968C291.694 43.9893 291.235 44 290.83 44C290.766 44 290.734 43.936 290.734 43.808C290.734 43.68 290.766 43.616 290.83 43.616C291.704 43.616 292.259 43.4773 292.494 43.2C292.75 42.9227 292.878 42.3253 292.878 41.408Z" fill="#262624"/>
<path d="M310.146 43.616C310.188 43.616 310.21 43.68 310.21 43.808C310.21 43.936 310.188 44 310.146 44C309.783 44 309.356 43.9893 308.866 43.968C308.396 43.9467 307.895 43.936 307.362 43.936C306.786 43.936 306.252 43.9467 305.762 43.968C305.292 43.9893 304.844 44 304.418 44C304.375 44 304.354 43.936 304.354 43.808C304.354 43.68 304.375 43.616 304.418 43.616C305.271 43.616 305.804 43.4773 306.018 43.2C306.252 42.9227 306.37 42.3253 306.37 41.408V37.824L306.882 37.888C306.284 37.888 305.74 37.984 305.25 38.176C304.78 38.3467 304.311 38.688 303.842 39.2C303.372 39.6907 302.871 40.4267 302.338 41.408C301.954 42.1333 301.655 42.688 301.442 43.072C301.228 43.4347 301.058 43.68 300.93 43.808C300.802 43.936 300.652 44 300.482 44H297.698C297.655 44 297.634 43.936 297.634 43.808C297.634 43.68 297.655 43.616 297.698 43.616C298.252 43.616 298.711 43.4667 299.074 43.168C299.436 42.848 299.735 42.4747 299.97 42.048C300.226 41.6 300.471 41.1733 300.706 40.768C301.175 39.9147 301.772 39.2213 302.498 38.688C303.223 38.1333 304.055 37.856 304.994 37.856L305.218 37.984C303.959 37.984 302.967 37.856 302.242 37.6C301.516 37.3227 301.004 36.9493 300.706 36.48C300.407 36.0107 300.258 35.4773 300.258 34.88C300.258 33.856 300.631 33.0453 301.378 32.448C302.146 31.8507 303.159 31.552 304.418 31.552C304.78 31.552 305.26 31.584 305.858 31.648C306.455 31.6907 306.956 31.712 307.362 31.712C307.895 31.712 308.386 31.7013 308.834 31.68C309.303 31.6587 309.73 31.648 310.114 31.648C310.156 31.648 310.178 31.712 310.178 31.84C310.178 31.968 310.156 32.032 310.114 32.032C309.324 32.032 308.802 32.1707 308.546 32.448C308.29 32.704 308.162 33.3013 308.162 34.24V41.408C308.162 42.3253 308.29 42.9227 308.546 43.2C308.823 43.4773 309.356 43.616 310.146 43.616ZM302.178 34.144C302.178 35.1253 302.423 35.936 302.914 36.576C303.404 37.216 304.14 37.536 305.122 37.536C305.42 37.536 305.751 37.5147 306.114 37.472C306.476 37.4293 306.764 37.3867 306.978 37.344L306.37 37.6V34.304C306.37 33.3227 306.242 32.6827 305.986 32.384C305.73 32.0853 305.196 31.936 304.386 31.936C302.914 31.936 302.178 32.672 302.178 34.144Z" fill="#262624"/>
<path d="M31.632 75.536C31.312 75.7813 30.9067 75.952 30.416 76.048C29.9253 76.144 29.4027 76.192 28.848 76.192C28.176 76.192 27.5467 76.08 26.96 75.856C26.3733 75.6213 25.8613 75.2693 25.424 74.8C24.9867 74.3307 24.64 73.7333 24.384 73.008C24.128 72.272 24 71.4027 24 70.4C24 69.3547 24.1387 68.4693 24.416 67.744C24.704 67.008 25.0773 66.4107 25.536 65.952C26.0053 65.4827 26.528 65.1413 27.104 64.928C27.68 64.7147 28.2667 64.608 28.864 64.608C29.504 64.608 30.0267 64.6453 30.432 64.72C30.8373 64.784 31.184 64.8747 31.472 64.992L31.152 66.16C30.64 65.9147 29.9093 65.792 28.96 65.792C28.5227 65.792 28.0907 65.872 27.664 66.032C27.2373 66.192 26.8533 66.4533 26.512 66.816C26.1813 67.1787 25.9147 67.6533 25.712 68.24C25.5093 68.8267 25.408 69.5467 25.408 70.4C25.408 71.168 25.504 71.84 25.696 72.416C25.888 72.992 26.1493 73.472 26.48 73.856C26.8213 74.24 27.216 74.528 27.664 74.72C28.1227 74.912 28.6187 75.008 29.152 75.008C29.632 75.008 30.048 74.96 30.4 74.864C30.7627 74.768 31.0667 74.6453 31.312 74.496L31.632 75.536Z" fill="#7E7D78"/>
<path d="M32.4661 72C32.4661 70.6453 32.7648 69.6107 33.3621 68.896C33.9701 68.1707 34.8395 67.808 35.9701 67.808C36.5675 67.808 37.0848 67.9093 37.5221 68.112C37.9701 68.304 38.3381 68.5867 38.6261 68.96C38.9141 69.3227 39.1275 69.7653 39.2661 70.288C39.4048 70.8 39.4741 71.3707 39.4741 72C39.4741 73.3547 39.1701 74.3947 38.5621 75.12C37.9648 75.8347 37.1008 76.192 35.9701 76.192C35.3728 76.192 34.8501 76.096 34.4021 75.904C33.9648 75.7013 33.6021 75.4187 33.3141 75.056C33.0261 74.6827 32.8128 74.24 32.6741 73.728C32.5355 73.2053 32.4661 72.6293 32.4661 72ZM33.7941 72C33.7941 72.4053 33.8315 72.7947 33.9061 73.168C33.9915 73.5413 34.1195 73.8667 34.2901 74.144C34.4608 74.4213 34.6848 74.6453 34.9621 74.816C35.2395 74.9867 35.5755 75.072 35.9701 75.072C37.4208 75.0827 38.1461 74.0587 38.1461 72C38.1461 71.584 38.1035 71.1893 38.0181 70.816C37.9435 70.4427 37.8208 70.1173 37.6501 69.84C37.4795 69.5627 37.2555 69.344 36.9781 69.184C36.7008 69.0133 36.3648 68.928 35.9701 68.928C34.5195 68.9173 33.7941 69.9413 33.7941 72Z" fill="#7E7D78"/>
<path d="M45.2682 69.232C44.9482 69.1253 44.6443 69.072 44.3563 69.072C43.8976 69.072 43.5349 69.2 43.2682 69.456C43.0016 69.7013 42.8362 70.016 42.7722 70.4V76H41.4923V68H42.3883L42.6283 68.976H42.6922C42.8949 68.6133 43.1349 68.336 43.4123 68.144C43.7003 67.9413 44.0629 67.84 44.5002 67.84C44.8096 67.84 45.1563 67.8933 45.5403 68L45.2682 69.232Z" fill="#7E7D78"/>
<path d="M51.6178 76V71.472C51.6178 71.0453 51.5964 70.6773 51.5538 70.368C51.5218 70.048 51.4524 69.7813 51.3458 69.568C51.2391 69.3547 51.0844 69.1947 50.8818 69.088C50.6898 68.9813 50.4338 68.928 50.1138 68.928C49.6231 68.928 49.2124 69.0773 48.8818 69.376C48.5618 69.6747 48.3377 70.048 48.2097 70.496V76H46.9298V68H47.8258L48.0658 68.976H48.1297C48.4177 68.6347 48.7484 68.3573 49.1217 68.144C49.5057 67.92 50.0018 67.808 50.6098 67.808C51.1218 67.808 51.5377 67.9093 51.8577 68.112C52.1884 68.304 52.4444 68.6453 52.6257 69.136C52.8711 68.72 53.2071 68.3947 53.6338 68.16C54.0711 67.9253 54.5617 67.808 55.1057 67.808C55.5537 67.808 55.9324 67.8613 56.2417 67.968C56.5511 68.064 56.8071 68.24 57.0098 68.496C57.2124 68.752 57.3564 69.0987 57.4417 69.536C57.5377 69.9733 57.5858 70.528 57.5858 71.2V76H56.3058V71.184C56.3058 70.8 56.2844 70.4693 56.2417 70.192C56.2097 69.904 56.1351 69.6693 56.0177 69.488C55.9111 69.296 55.7564 69.1573 55.5538 69.072C55.3618 68.976 55.1057 68.928 54.7857 68.928C54.2524 68.928 53.8364 69.0773 53.5378 69.376C53.2391 69.6747 53.0258 70.1013 52.8978 70.656V76H51.6178Z" fill="#7E7D78"/>
<path d="M59.4661 72C59.4661 70.6453 59.7648 69.6107 60.3621 68.896C60.9701 68.1707 61.8395 67.808 62.9701 67.808C63.5675 67.808 64.0848 67.9093 64.5221 68.112C64.9701 68.304 65.3381 68.5867 65.6261 68.96C65.9141 69.3227 66.1275 69.7653 66.2661 70.288C66.4048 70.8 66.4741 71.3707 66.4741 72C66.4741 73.3547 66.1701 74.3947 65.5621 75.12C64.9648 75.8347 64.1008 76.192 62.9701 76.192C62.3728 76.192 61.8501 76.096 61.4021 75.904C60.9648 75.7013 60.6021 75.4187 60.3141 75.056C60.0261 74.6827 59.8128 74.24 59.6741 73.728C59.5355 73.2053 59.4661 72.6293 59.4661 72ZM60.7941 72C60.7941 72.4053 60.8315 72.7947 60.9061 73.168C60.9915 73.5413 61.1195 73.8667 61.2901 74.144C61.4608 74.4213 61.6848 74.6453 61.9621 74.816C62.2395 74.9867 62.5755 75.072 62.9701 75.072C64.4208 75.0827 65.1461 74.0587 65.1461 72C65.1461 71.584 65.1035 71.1893 65.0181 70.816C64.9435 70.4427 64.8208 70.1173 64.6501 69.84C64.4795 69.5627 64.2555 69.344 63.9781 69.184C63.7008 69.0133 63.3648 68.928 62.9701 68.928C61.5195 68.9173 60.7941 69.9413 60.7941 72Z" fill="#7E7D78"/>
<path d="M72.2682 69.232C71.9482 69.1253 71.6443 69.072 71.3563 69.072C70.8976 69.072 70.5349 69.2 70.2682 69.456C70.0016 69.7013 69.8363 70.016 69.7723 70.4V76H68.4922V68H69.3882L69.6283 68.976H69.6922C69.8949 68.6133 70.1349 68.336 70.4123 68.144C70.7003 67.9413 71.0629 67.84 71.5003 67.84C71.8096 67.84 72.1562 67.8933 72.5402 68L72.2682 69.232Z" fill="#7E7D78"/>
<path d="M73.8018 68.592C74.2071 68.3467 74.6764 68.1653 75.2098 68.048C75.7538 67.9307 76.3191 67.872 76.9058 67.872C77.4604 67.872 77.9031 67.9467 78.2337 68.096C78.5751 68.2453 78.8311 68.4427 79.0018 68.688C79.1831 68.9227 79.3004 69.184 79.3537 69.472C79.4177 69.76 79.4497 70.048 79.4497 70.336C79.4497 70.976 79.4337 71.6 79.4017 72.208C79.3697 72.816 79.3537 73.392 79.3537 73.936C79.3537 74.3307 79.3697 74.704 79.4017 75.056C79.4337 75.408 79.4924 75.7333 79.5778 76.032H78.6338L78.2977 74.912H78.2178C78.1218 75.0613 77.9991 75.2107 77.8498 75.36C77.7111 75.4987 77.5404 75.6267 77.3377 75.744C77.1351 75.8507 76.9004 75.9413 76.6338 76.016C76.3671 76.0907 76.0631 76.128 75.7217 76.128C75.3804 76.128 75.0604 76.0747 74.7617 75.968C74.4737 75.8613 74.2231 75.712 74.0098 75.52C73.7964 75.3173 73.6257 75.0773 73.4977 74.8C73.3804 74.5227 73.3218 74.208 73.3218 73.856C73.3218 73.3867 73.4177 72.9973 73.6097 72.688C73.8017 72.368 74.0684 72.1173 74.4098 71.936C74.7618 71.744 75.1777 71.6107 75.6577 71.536C76.1484 71.4507 76.6871 71.408 77.2738 71.408C77.4231 71.408 77.5671 71.408 77.7057 71.408C77.8551 71.408 78.0044 71.4187 78.1538 71.44C78.1858 71.12 78.2018 70.832 78.2018 70.576C78.2018 69.9893 78.0844 69.5787 77.8498 69.344C77.6151 69.1093 77.1884 68.992 76.5698 68.992C76.3884 68.992 76.1911 69.008 75.9777 69.04C75.7751 69.0613 75.5617 69.0987 75.3377 69.152C75.1244 69.1947 74.9164 69.2533 74.7137 69.328C74.5217 69.392 74.3511 69.4667 74.2018 69.552L73.8018 68.592ZM76.0737 75.008C76.3724 75.008 76.6391 74.9707 76.8737 74.896C77.1084 74.8107 77.3111 74.7093 77.4818 74.592C77.6524 74.464 77.7911 74.3253 77.8978 74.176C78.0151 74.0267 78.1004 73.8827 78.1538 73.744V72.416C78.0044 72.4053 77.8498 72.4 77.6898 72.4C77.5404 72.3893 77.3911 72.384 77.2417 72.384C76.9111 72.384 76.5858 72.4053 76.2658 72.448C75.9564 72.48 75.6791 72.5493 75.4338 72.656C75.1991 72.752 75.0071 72.8907 74.8577 73.072C74.7191 73.2427 74.6497 73.4613 74.6497 73.728C74.6497 74.1013 74.7831 74.4107 75.0498 74.656C75.3164 74.8907 75.6577 75.008 76.0737 75.008Z" fill="#7E7D78"/>
<path d="M87.0033 76V71.44C87.0033 70.608 86.8806 69.984 86.6353 69.568C86.4006 69.1413 85.9632 68.928 85.3232 68.928C84.7579 68.928 84.2886 69.0827 83.9152 69.392C83.5526 69.6907 83.2966 70.0693 83.1473 70.528V76H81.8672V68H82.7632L83.0033 68.976H83.0672C83.3232 68.6347 83.6646 68.3573 84.0913 68.144C84.5286 67.92 85.0459 67.808 85.6432 67.808C86.0806 67.808 86.4646 67.8613 86.7952 67.968C87.1259 68.064 87.3979 68.24 87.6113 68.496C87.8353 68.752 88.0006 69.0987 88.1072 69.536C88.2246 69.9627 88.2832 70.5067 88.2832 71.168V76H87.0033Z" fill="#7E7D78"/>
<path d="M89.5612 68H90.8092V66.416L92.0892 66.048V68H94.2653V69.12H92.0892V73.552C92.0892 74.1067 92.1586 74.5013 92.2972 74.736C92.4359 74.96 92.6706 75.072 93.0013 75.072C93.2786 75.072 93.5133 75.0453 93.7053 74.992C93.8973 74.928 94.1106 74.848 94.3453 74.752L94.6332 75.728C94.3452 75.8667 94.0306 75.9787 93.6892 76.064C93.3479 76.1493 92.9799 76.192 92.5853 76.192C91.9346 76.192 91.4759 76.0107 91.2093 75.648C90.9426 75.2747 90.8092 74.656 90.8092 73.792V69.12H89.5612V68Z" fill="#7E7D78"/>
<path d="M27.99 129.444V129.234H31.07V108.654H28.27C27.4487 108.654 26.772 108.803 26.24 109.102C25.7173 109.401 25.3067 109.821 25.008 110.362C24.7187 110.903 24.5133 111.547 24.392 112.294C24.2707 113.041 24.21 113.857 24.21 114.744H24V108.444H40.814V114.744H40.59C40.59 113.857 40.5293 113.041 40.408 112.294C40.2867 111.547 40.0767 110.903 39.778 110.362C39.4887 109.821 39.078 109.401 38.546 109.102C38.0233 108.803 37.3513 108.654 36.53 108.654H33.73V129.234H36.81V129.444H27.99Z" fill="#262624"/>
<path d="M42.3549 129.444V129.234H44.0909V108.654H42.3549V108.444H46.5969V129.234H48.3189V129.444H42.3549ZM50.9089 129.444V129.234H52.6169V120.848C52.6169 120.064 52.5842 119.35 52.5189 118.706C52.4535 118.062 52.2995 117.549 52.0569 117.166C51.8142 116.774 51.4362 116.578 50.9229 116.578C49.9989 116.578 49.2475 116.802 48.6689 117.25C48.0995 117.698 47.6655 118.267 47.3669 118.958C47.0682 119.649 46.8629 120.372 46.7509 121.128C46.6482 121.884 46.5969 122.57 46.5969 123.186L46.4429 123.298C46.4429 122.654 46.4942 121.931 46.5969 121.128C46.6995 120.325 46.9095 119.56 47.2269 118.832C47.5442 118.095 48.0202 117.488 48.6549 117.012C49.2895 116.527 50.1342 116.284 51.1889 116.284C52.2715 116.284 53.0929 116.466 53.6529 116.83C54.2222 117.194 54.6095 117.698 54.8149 118.342C55.0202 118.977 55.1229 119.7 55.1229 120.512V129.234H56.8589V129.444H50.9089Z" fill="#262624"/>
<path d="M65.6084 129.724C64.3951 129.724 63.2984 129.458 62.3184 128.926C61.3478 128.385 60.5731 127.615 59.9944 126.616C59.4251 125.608 59.1404 124.404 59.1404 123.004C59.1404 121.604 59.4158 120.405 59.9664 119.406C60.5171 118.398 61.2731 117.628 62.2344 117.096C63.1958 116.555 64.2831 116.284 65.4964 116.284C66.8778 116.284 67.9838 116.559 68.8144 117.11C69.6544 117.661 70.2611 118.384 70.6344 119.28C71.0171 120.167 71.2084 121.119 71.2084 122.136H61.0164V121.926H68.2404C68.2498 121.403 68.2218 120.829 68.1564 120.204C68.1004 119.579 67.9791 118.986 67.7924 118.426C67.6058 117.866 67.3304 117.404 66.9664 117.04C66.6024 116.676 66.1124 116.494 65.4964 116.494C64.8058 116.494 64.2364 116.681 63.7884 117.054C63.3498 117.427 63.0044 117.927 62.7524 118.552C62.5004 119.177 62.3184 119.877 62.2064 120.652C62.1038 121.417 62.0524 122.201 62.0524 123.004C62.0524 123.797 62.1038 124.581 62.2064 125.356C62.3184 126.131 62.5098 126.826 62.7804 127.442C63.0604 128.058 63.4384 128.553 63.9144 128.926C64.3998 129.29 65.0204 129.472 65.7764 129.472C67.1671 129.472 68.3058 129.094 69.1924 128.338C70.0884 127.573 70.7091 126.644 71.0544 125.552H71.2924C70.9284 126.737 70.2751 127.731 69.3324 128.534C68.3898 129.327 67.1484 129.724 65.6084 129.724Z" fill="#262624"/>
<path d="M84.6727 116.564V129.234H86.3947V129.444H80.4447V129.234H82.1807V116.774H80.4447V116.564H84.6727ZM92.6527 120.512V129.234H94.3887V129.444H88.4387V129.234H90.1607V120.82C90.1607 120.036 90.1327 119.322 90.0767 118.678C90.0301 118.034 89.8947 117.525 89.6707 117.152C89.456 116.769 89.0921 116.578 88.5787 116.578C87.7854 116.578 87.1321 116.802 86.6187 117.25C86.1054 117.698 85.7041 118.267 85.4147 118.958C85.1347 119.649 84.9387 120.372 84.8267 121.128C84.7241 121.875 84.6727 122.551 84.6727 123.158L84.5327 123.27C84.5327 122.626 84.5841 121.907 84.6867 121.114C84.7894 120.311 84.9901 119.546 85.2887 118.818C85.5967 118.081 86.0401 117.474 86.6187 116.998C87.1974 116.522 87.9627 116.284 88.9147 116.284C89.8761 116.284 90.6274 116.466 91.1687 116.83C91.7194 117.194 92.1021 117.698 92.3167 118.342C92.5407 118.977 92.6527 119.7 92.6527 120.512ZM100.633 120.512V129.234H102.355V129.444H96.4047V129.234H98.1267V120.82C98.1267 120.036 98.0987 119.322 98.0427 118.678C97.9867 118.034 97.8467 117.525 97.6227 117.152C97.3987 116.769 97.03 116.578 96.5167 116.578C95.714 116.578 95.0561 116.802 94.5427 117.25C94.0387 117.698 93.6514 118.267 93.3807 118.958C93.1101 119.649 92.9187 120.372 92.8067 121.128C92.7041 121.875 92.6527 122.551 92.6527 123.158L92.5127 123.27C92.5127 122.626 92.5594 121.907 92.6527 121.114C92.7554 120.311 92.9514 119.546 93.2407 118.818C93.5394 118.081 93.9734 117.474 94.5427 116.998C95.1214 116.522 95.8867 116.284 96.8387 116.284C97.8094 116.284 98.5701 116.466 99.1207 116.83C99.6714 117.194 100.059 117.698 100.283 118.342C100.516 118.977 100.633 119.7 100.633 120.512Z" fill="#262624"/>
<path d="M115.028 129.724C114.59 129.724 114.174 129.659 113.782 129.528C113.4 129.397 113.087 129.159 112.844 128.814C112.611 128.469 112.494 127.969 112.494 127.316V120.918C112.494 120.246 112.443 119.579 112.34 118.916C112.238 118.253 112.009 117.703 111.654 117.264C111.3 116.825 110.749 116.606 110.002 116.606C109.517 116.606 109.027 116.667 108.532 116.788C108.038 116.909 107.58 117.082 107.16 117.306C106.75 117.521 106.418 117.791 106.166 118.118C105.914 118.435 105.788 118.795 105.788 119.196H105.564C105.564 118.72 105.718 118.347 106.026 118.076C106.344 117.796 106.689 117.656 107.062 117.656C107.464 117.656 107.828 117.787 108.154 118.048C108.49 118.3 108.658 118.664 108.658 119.14C108.658 119.7 108.486 120.106 108.14 120.358C107.804 120.61 107.445 120.736 107.062 120.736C106.633 120.736 106.269 120.605 105.97 120.344C105.681 120.083 105.536 119.7 105.536 119.196C105.536 118.757 105.676 118.365 105.956 118.02C106.236 117.665 106.61 117.367 107.076 117.124C107.552 116.872 108.089 116.681 108.686 116.55C109.293 116.41 109.914 116.34 110.548 116.34C111.836 116.34 112.793 116.564 113.418 117.012C114.053 117.46 114.473 118.034 114.678 118.734C114.884 119.434 114.986 120.162 114.986 120.918V128.058C114.986 128.385 115.047 128.669 115.168 128.912C115.299 129.145 115.556 129.262 115.938 129.262C116.246 129.262 116.582 129.122 116.946 128.842C117.31 128.562 117.595 128.189 117.8 127.722L117.912 127.904C117.67 128.436 117.292 128.875 116.778 129.22C116.274 129.556 115.691 129.724 115.028 129.724ZM108.546 129.724C107.333 129.724 106.362 129.416 105.634 128.8C104.916 128.175 104.556 127.33 104.556 126.266C104.556 125.015 105.084 124.049 106.138 123.368C107.202 122.687 108.728 122.346 110.716 122.346H113.796V122.528H110.716C109.895 122.528 109.242 122.724 108.756 123.116C108.271 123.499 107.921 123.965 107.706 124.516C107.501 125.067 107.398 125.599 107.398 126.112C107.398 126.579 107.459 127.055 107.58 127.54C107.702 128.025 107.907 128.431 108.196 128.758C108.495 129.085 108.887 129.248 109.372 129.248C109.914 129.248 110.422 129.08 110.898 128.744C111.374 128.408 111.757 127.881 112.046 127.162C112.345 126.434 112.494 125.501 112.494 124.362H112.634C112.634 125.426 112.49 126.364 112.2 127.176C111.911 127.979 111.468 128.604 110.87 129.052C110.273 129.5 109.498 129.724 108.546 129.724Z" fill="#262624"/>
<path d="M121.999 111.552C121.541 111.552 121.145 111.384 120.809 111.048C120.482 110.712 120.319 110.32 120.319 109.872C120.319 109.405 120.482 109.009 120.809 108.682C121.145 108.355 121.541 108.192 121.999 108.192C122.465 108.192 122.862 108.355 123.189 108.682C123.515 109.009 123.679 109.405 123.679 109.872C123.679 110.329 123.515 110.726 123.189 111.062C122.862 111.389 122.465 111.552 121.999 111.552ZM123.245 116.564V129.234H124.967V129.444H119.003V129.234H120.725V116.774H119.003V116.564H123.245Z" fill="#262624"/>
<path d="M131.212 116.564V129.234H132.934V129.444H126.984V129.234H128.72V116.774H126.984V116.564H131.212ZM139.752 120.512V129.234H141.488V129.444H135.538V129.234H137.246V120.848C137.246 120.064 137.213 119.35 137.148 118.706C137.082 118.062 136.928 117.549 136.686 117.166C136.443 116.774 136.065 116.578 135.552 116.578C134.628 116.578 133.876 116.802 133.298 117.25C132.728 117.698 132.29 118.267 131.982 118.958C131.683 119.649 131.478 120.372 131.366 121.128C131.263 121.884 131.212 122.57 131.212 123.186L131.058 123.298C131.058 122.654 131.109 121.931 131.212 121.128C131.314 120.325 131.524 119.56 131.842 118.832C132.159 118.095 132.635 117.488 133.27 117.012C133.904 116.527 134.754 116.284 135.818 116.284C136.91 116.284 137.736 116.466 138.296 116.83C138.865 117.194 139.248 117.698 139.444 118.342C139.649 118.977 139.752 119.7 139.752 120.512Z" fill="#262624"/>
<path d="M161.157 129.724C160.719 129.724 160.303 129.659 159.911 129.528C159.529 129.397 159.216 129.159 158.973 128.814C158.74 128.469 158.623 127.969 158.623 127.316V120.918C158.623 120.246 158.572 119.579 158.469 118.916C158.367 118.253 158.138 117.703 157.783 117.264C157.429 116.825 156.878 116.606 156.131 116.606C155.646 116.606 155.156 116.667 154.661 116.788C154.167 116.909 153.709 117.082 153.289 117.306C152.879 117.521 152.547 117.791 152.295 118.118C152.043 118.435 151.917 118.795 151.917 119.196H151.693C151.693 118.72 151.847 118.347 152.155 118.076C152.473 117.796 152.818 117.656 153.191 117.656C153.593 117.656 153.957 117.787 154.283 118.048C154.619 118.3 154.787 118.664 154.787 119.14C154.787 119.7 154.615 120.106 154.269 120.358C153.933 120.61 153.574 120.736 153.191 120.736C152.762 120.736 152.398 120.605 152.099 120.344C151.81 120.083 151.665 119.7 151.665 119.196C151.665 118.757 151.805 118.365 152.085 118.02C152.365 117.665 152.739 117.367 153.205 117.124C153.681 116.872 154.218 116.681 154.815 116.55C155.422 116.41 156.043 116.34 156.677 116.34C157.965 116.34 158.922 116.564 159.547 117.012C160.182 117.46 160.602 118.034 160.807 118.734C161.013 119.434 161.115 120.162 161.115 120.918V128.058C161.115 128.385 161.176 128.669 161.297 128.912C161.428 129.145 161.685 129.262 162.067 129.262C162.375 129.262 162.711 129.122 163.075 128.842C163.439 128.562 163.724 128.189 163.929 127.722L164.041 127.904C163.799 128.436 163.421 128.875 162.907 129.22C162.403 129.556 161.82 129.724 161.157 129.724ZM154.675 129.724C153.462 129.724 152.491 129.416 151.763 128.8C151.045 128.175 150.685 127.33 150.685 126.266C150.685 125.015 151.213 124.049 152.267 123.368C153.331 122.687 154.857 122.346 156.845 122.346H159.925V122.528H156.845C156.024 122.528 155.371 122.724 154.885 123.116C154.4 123.499 154.05 123.965 153.835 124.516C153.63 125.067 153.527 125.599 153.527 126.112C153.527 126.579 153.588 127.055 153.709 127.54C153.831 128.025 154.036 128.431 154.325 128.758C154.624 129.085 155.016 129.248 155.501 129.248C156.043 129.248 156.551 129.08 157.027 128.744C157.503 128.408 157.886 127.881 158.175 127.162C158.474 126.434 158.623 125.501 158.623 124.362H158.763C158.763 125.426 158.619 126.364 158.329 127.176C158.04 127.979 157.597 128.604 156.999 129.052C156.402 129.5 155.627 129.724 154.675 129.724Z" fill="#262624"/>
<path d="M171.306 129.696C170.298 129.696 169.346 129.43 168.45 128.898C167.554 128.366 166.826 127.601 166.266 126.602C165.706 125.603 165.426 124.404 165.426 123.004C165.426 121.604 165.706 120.405 166.266 119.406C166.826 118.398 167.554 117.628 168.45 117.096C169.346 116.555 170.298 116.284 171.306 116.284C172.528 116.284 173.513 116.732 174.26 117.628C175.016 118.515 175.492 119.756 175.688 121.352V108.654H173.966V108.444H178.222V129.234H179.944V129.444H175.688V124.67C175.492 126.257 175.016 127.493 174.26 128.38C173.513 129.257 172.528 129.696 171.306 129.696ZM171.74 129.332C172.458 129.332 173.116 129.094 173.714 128.618C174.32 128.133 174.801 127.423 175.156 126.49C175.51 125.547 175.688 124.385 175.688 123.004C175.688 121.623 175.51 120.461 175.156 119.518C174.801 118.575 174.32 117.866 173.714 117.39C173.116 116.905 172.458 116.662 171.74 116.662C170.974 116.662 170.34 116.933 169.836 117.474C169.341 118.006 168.968 118.748 168.716 119.7C168.464 120.652 168.338 121.753 168.338 123.004C168.338 124.255 168.464 125.356 168.716 126.308C168.968 127.26 169.341 128.002 169.836 128.534C170.34 129.066 170.974 129.332 171.74 129.332Z" fill="#262624"/>
<path d="M195.64 116.564V116.774H193.694L188.36 129.724H188.136L182.83 116.774H181.248V116.564H187.996V116.774H185.602L189.382 126.588L193.428 116.774H190.81V116.564H195.64Z" fill="#262624"/>
<path d="M200.339 111.552C199.881 111.552 199.485 111.384 199.149 111.048C198.822 110.712 198.659 110.32 198.659 109.872C198.659 109.405 198.822 109.009 199.149 108.682C199.485 108.355 199.881 108.192 200.339 108.192C200.805 108.192 201.202 108.355 201.529 108.682C201.855 109.009 202.019 109.405 202.019 109.872C202.019 110.329 201.855 110.726 201.529 111.062C201.202 111.389 200.805 111.552 200.339 111.552ZM201.585 116.564V129.234H203.307V129.444H197.343V129.234H199.065V116.774H197.343V116.564H201.585Z" fill="#262624"/>
<path d="M212.128 129.724C210.905 129.724 209.813 129.458 208.852 128.926C207.89 128.385 207.134 127.615 206.584 126.616C206.033 125.608 205.758 124.404 205.758 123.004C205.758 121.791 206.005 120.675 206.5 119.658C207.004 118.641 207.736 117.824 208.698 117.208C209.668 116.592 210.858 116.284 212.268 116.284C213.22 116.284 214.041 116.452 214.732 116.788C215.422 117.115 215.954 117.558 216.328 118.118C216.701 118.669 216.888 119.275 216.888 119.938C216.888 120.442 216.743 120.834 216.454 121.114C216.164 121.394 215.805 121.534 215.376 121.534C215.142 121.534 214.9 121.483 214.648 121.38C214.405 121.268 214.2 121.1 214.032 120.876C213.864 120.643 213.78 120.339 213.78 119.966C213.78 119.471 213.938 119.098 214.256 118.846C214.573 118.585 214.946 118.454 215.376 118.454C215.777 118.454 216.122 118.58 216.412 118.832C216.71 119.075 216.86 119.443 216.86 119.938H216.664C216.664 119.387 216.542 118.902 216.3 118.482C216.066 118.062 215.749 117.707 215.348 117.418C214.956 117.119 214.517 116.895 214.032 116.746C213.546 116.597 213.052 116.522 212.548 116.522C211.726 116.522 211.059 116.732 210.546 117.152C210.042 117.572 209.65 118.113 209.37 118.776C209.099 119.439 208.917 120.143 208.824 120.89C208.73 121.637 208.684 122.341 208.684 123.004C208.684 123.807 208.735 124.591 208.838 125.356C208.94 126.121 209.122 126.812 209.384 127.428C209.645 128.044 210.009 128.534 210.476 128.898C210.952 129.262 211.563 129.444 212.31 129.444C213.14 129.444 213.854 129.276 214.452 128.94C215.049 128.604 215.548 128.142 215.95 127.554C216.351 126.966 216.678 126.299 216.93 125.552H217.154C216.79 126.737 216.216 127.731 215.432 128.534C214.648 129.327 213.546 129.724 212.128 129.724Z" fill="#262624"/>
<path d="M226.444 129.724C225.231 129.724 224.134 129.458 223.154 128.926C222.184 128.385 221.409 127.615 220.83 126.616C220.261 125.608 219.976 124.404 219.976 123.004C219.976 121.604 220.252 120.405 220.802 119.406C221.353 118.398 222.109 117.628 223.07 117.096C224.032 116.555 225.119 116.284 226.332 116.284C227.714 116.284 228.82 116.559 229.65 117.11C230.49 117.661 231.097 118.384 231.47 119.28C231.853 120.167 232.044 121.119 232.044 122.136H221.852V121.926H229.076C229.086 121.403 229.058 120.829 228.992 120.204C228.936 119.579 228.815 118.986 228.628 118.426C228.442 117.866 228.166 117.404 227.802 117.04C227.438 116.676 226.948 116.494 226.332 116.494C225.642 116.494 225.072 116.681 224.624 117.054C224.186 117.427 223.84 117.927 223.588 118.552C223.336 119.177 223.154 119.877 223.042 120.652C222.94 121.417 222.888 122.201 222.888 123.004C222.888 123.797 222.94 124.581 223.042 125.356C223.154 126.131 223.346 126.826 223.616 127.442C223.896 128.058 224.274 128.553 224.75 128.926C225.236 129.29 225.856 129.472 226.612 129.472C228.003 129.472 229.142 129.094 230.028 128.338C230.924 127.573 231.545 126.644 231.89 125.552H232.128C231.764 126.737 231.111 127.731 230.168 128.534C229.226 129.327 227.984 129.724 226.444 129.724Z" fill="#262624"/>
<path d="M31.482 154.804C31.482 155.071 31.4393 155.343 31.354 155.62C31.2687 155.897 31.1407 156.159 30.97 156.404C30.7993 156.639 30.5807 156.847 30.314 157.028C30.0473 157.209 29.7327 157.348 29.37 157.444V157.508C29.69 157.561 29.994 157.652 30.282 157.78C30.5807 157.908 30.842 158.084 31.066 158.308C31.29 158.532 31.4713 158.804 31.61 159.124C31.7487 159.444 31.818 159.823 31.818 160.26C31.818 160.836 31.6953 161.337 31.45 161.764C31.2153 162.18 30.9007 162.521 30.506 162.788C30.122 163.055 29.6793 163.252 29.178 163.38C28.6767 163.508 28.1647 163.572 27.642 163.572C27.4607 163.572 27.2473 163.572 27.002 163.572C26.7567 163.572 26.5007 163.561 26.234 163.54C25.9673 163.529 25.7007 163.508 25.434 163.476C25.1673 163.455 24.9327 163.417 24.73 163.364V152.34C25.1247 152.276 25.5833 152.223 26.106 152.18C26.6287 152.137 27.1993 152.116 27.818 152.116C28.234 152.116 28.6553 152.153 29.082 152.228C29.5193 152.292 29.914 152.425 30.266 152.628C30.618 152.82 30.906 153.092 31.13 153.444C31.3647 153.796 31.482 154.249 31.482 154.804ZM27.77 162.42C28.1113 162.42 28.442 162.383 28.762 162.308C29.082 162.223 29.3647 162.095 29.61 161.924C29.8553 161.743 30.0473 161.524 30.186 161.268C30.3353 161.012 30.41 160.708 30.41 160.356C30.41 159.919 30.3193 159.567 30.138 159.3C29.9673 159.033 29.738 158.825 29.45 158.676C29.1727 158.527 28.858 158.425 28.506 158.372C28.154 158.319 27.802 158.292 27.45 158.292H26.058V162.308C26.1327 162.329 26.2393 162.345 26.378 162.356C26.5167 162.367 26.666 162.377 26.826 162.388C26.986 162.399 27.1513 162.409 27.322 162.42C27.4927 162.42 27.642 162.42 27.77 162.42ZM26.89 157.172C27.0713 157.172 27.29 157.167 27.546 157.156C27.802 157.145 28.0153 157.129 28.186 157.108C28.442 157.023 28.682 156.921 28.906 156.804C29.13 156.676 29.3273 156.532 29.498 156.372C29.6793 156.201 29.818 156.009 29.914 155.796C30.0207 155.572 30.074 155.332 30.074 155.076C30.074 154.724 30.0047 154.436 29.866 154.212C29.738 153.977 29.562 153.791 29.338 153.652C29.114 153.513 28.858 153.417 28.57 153.364C28.282 153.3 27.9887 153.268 27.69 153.268C27.338 153.268 27.0127 153.279 26.714 153.3C26.426 153.311 26.2073 153.332 26.058 153.364V157.172H26.89Z" fill="#7E7D78"/>
<path d="M33.4978 159.444C33.4978 158.089 33.7964 157.055 34.3938 156.34C35.0018 155.615 35.8711 155.252 37.0017 155.252C37.5991 155.252 38.1164 155.353 38.5538 155.556C39.0017 155.748 39.3698 156.031 39.6578 156.404C39.9458 156.767 40.1591 157.209 40.2978 157.732C40.4364 158.244 40.5058 158.815 40.5058 159.444C40.5058 160.799 40.2018 161.839 39.5938 162.564C38.9964 163.279 38.1324 163.636 37.0017 163.636C36.4044 163.636 35.8818 163.54 35.4338 163.348C34.9964 163.145 34.6337 162.863 34.3457 162.5C34.0577 162.127 33.8444 161.684 33.7058 161.172C33.5671 160.649 33.4978 160.073 33.4978 159.444ZM34.8258 159.444C34.8258 159.849 34.8631 160.239 34.9377 160.612C35.0231 160.985 35.1511 161.311 35.3217 161.588C35.4924 161.865 35.7164 162.089 35.9938 162.26C36.2711 162.431 36.6071 162.516 37.0017 162.516C38.4524 162.527 39.1778 161.503 39.1778 159.444C39.1778 159.028 39.1351 158.633 39.0498 158.26C38.9751 157.887 38.8524 157.561 38.6818 157.284C38.5111 157.007 38.2871 156.788 38.0098 156.628C37.7324 156.457 37.3964 156.372 37.0017 156.372C35.5511 156.361 34.8258 157.385 34.8258 159.444Z" fill="#7E7D78"/>
<path d="M48.6679 160.692C48.6679 161.236 48.6732 161.732 48.6839 162.18C48.6945 162.617 48.7425 163.049 48.8279 163.476H47.9639L47.6439 162.34H47.5799C47.3665 162.713 47.0572 163.023 46.6519 163.268C46.2465 163.513 45.7719 163.636 45.2279 163.636C44.1612 163.636 43.3665 163.3 42.8439 162.628C42.3319 161.956 42.0759 160.905 42.0759 159.476C42.0759 158.111 42.3959 157.076 43.0359 156.372C43.6865 155.657 44.5772 155.3 45.7079 155.3C46.1025 155.3 46.4119 155.321 46.6359 155.364C46.8705 155.407 47.1212 155.476 47.3879 155.572V152.244H48.6679V160.692ZM45.4359 162.516C45.9799 162.516 46.4119 162.377 46.7319 162.1C47.0519 161.812 47.2705 161.38 47.3879 160.804V156.836C47.1959 156.687 46.9772 156.58 46.7319 156.516C46.4865 156.452 46.1612 156.42 45.7559 156.42C45.0199 156.42 44.4439 156.665 44.0279 157.156C43.6119 157.636 43.4039 158.409 43.4039 159.476C43.4039 159.913 43.4359 160.319 43.4999 160.692C43.5745 161.065 43.6919 161.385 43.8519 161.652C44.0119 161.919 44.2199 162.132 44.4759 162.292C44.7425 162.441 45.0625 162.516 45.4359 162.516Z" fill="#7E7D78"/>
<path d="M50.6852 159.444C50.6852 158.089 50.9839 157.055 51.5812 156.34C52.1892 155.615 53.0586 155.252 54.1893 155.252C54.7866 155.252 55.3039 155.353 55.7413 155.556C56.1893 155.748 56.5572 156.031 56.8452 156.404C57.1332 156.767 57.3466 157.209 57.4853 157.732C57.6239 158.244 57.6932 158.815 57.6932 159.444C57.6932 160.799 57.3893 161.839 56.7812 162.564C56.1839 163.279 55.3199 163.636 54.1893 163.636C53.5919 163.636 53.0693 163.54 52.6213 163.348C52.1839 163.145 51.8213 162.863 51.5333 162.5C51.2453 162.127 51.0319 161.684 50.8932 161.172C50.7546 160.649 50.6852 160.073 50.6852 159.444ZM52.0133 159.444C52.0133 159.849 52.0506 160.239 52.1252 160.612C52.2106 160.985 52.3386 161.311 52.5093 161.588C52.6799 161.865 52.9039 162.089 53.1812 162.26C53.4586 162.431 53.7946 162.516 54.1893 162.516C55.6399 162.527 56.3652 161.503 56.3652 159.444C56.3652 159.028 56.3226 158.633 56.2373 158.26C56.1626 157.887 56.0399 157.561 55.8693 157.284C55.6986 157.007 55.4746 156.788 55.1973 156.628C54.9199 156.457 54.5839 156.372 54.1893 156.372C52.7386 156.361 52.0133 157.385 52.0133 159.444Z" fill="#7E7D78"/>
<path d="M64.8474 163.444V158.884C64.8474 158.052 64.7247 157.428 64.4794 157.012C64.2447 156.585 63.8074 156.372 63.1674 156.372C62.602 156.372 62.1327 156.527 61.7594 156.836C61.3967 157.135 61.1407 157.513 60.9914 157.972V163.444H59.7114V155.444H60.6074L60.8474 156.42H60.9114C61.1674 156.079 61.5087 155.801 61.9354 155.588C62.3727 155.364 62.89 155.252 63.4874 155.252C63.9247 155.252 64.3087 155.305 64.6394 155.412C64.97 155.508 65.242 155.684 65.4554 155.94C65.6794 156.196 65.8447 156.543 65.9514 156.98C66.0687 157.407 66.1274 157.951 66.1274 158.612V163.444H64.8474Z" fill="#7E7D78"/>
<path d="M68.7334 155.444H70.0134V163.444H68.7334V155.444ZM68.4614 153.012C68.4614 152.767 68.5414 152.559 68.7014 152.388C68.872 152.207 69.0854 152.116 69.3414 152.116C69.5974 152.116 69.816 152.207 69.9974 152.388C70.1787 152.559 70.2694 152.767 70.2694 153.012C70.2694 153.257 70.1787 153.46 69.9974 153.62C69.816 153.78 69.5974 153.86 69.3414 153.86C69.0854 153.86 68.872 153.78 68.7014 153.62C68.5414 153.46 68.4614 153.257 68.4614 153.012Z" fill="#7E7D78"/>
<path d="M85.7443 155.924L85.9043 154.244H85.8242L85.2163 155.78L82.3042 160.836H81.9043L78.8162 155.764L78.2402 154.244H78.1603L78.3843 155.908V163.444H77.1362V152.244H78.1283L81.6323 157.972L82.1603 159.22H82.1922L82.6883 157.94L86.0322 152.244H87.0723V163.444H85.7443V155.924Z" fill="#7E7D78"/>
<path d="M89.2165 159.444C89.2165 158.089 89.5152 157.055 90.1125 156.34C90.7205 155.615 91.5898 155.252 92.7205 155.252C93.3178 155.252 93.8352 155.353 94.2725 155.556C94.7205 155.748 95.0885 156.031 95.3765 156.404C95.6645 156.767 95.8778 157.209 96.0165 157.732C96.1552 158.244 96.2245 158.815 96.2245 159.444C96.2245 160.799 95.9205 161.839 95.3125 162.564C94.7152 163.279 93.8512 163.636 92.7205 163.636C92.1232 163.636 91.6005 163.54 91.1525 163.348C90.7152 163.145 90.3525 162.863 90.0645 162.5C89.7765 162.127 89.5632 161.684 89.4245 161.172C89.2858 160.649 89.2165 160.073 89.2165 159.444ZM90.5445 159.444C90.5445 159.849 90.5818 160.239 90.6565 160.612C90.7418 160.985 90.8698 161.311 91.0405 161.588C91.2112 161.865 91.4352 162.089 91.7125 162.26C91.9898 162.431 92.3258 162.516 92.7205 162.516C94.1712 162.527 94.8965 161.503 94.8965 159.444C94.8965 159.028 94.8538 158.633 94.7685 158.26C94.6938 157.887 94.5712 157.561 94.4005 157.284C94.2298 157.007 94.0058 156.788 93.7285 156.628C93.4512 156.457 93.1152 156.372 92.7205 156.372C91.2698 156.361 90.5445 157.385 90.5445 159.444Z" fill="#7E7D78"/>
<path d="M104.387 160.692C104.387 161.236 104.392 161.732 104.403 162.18C104.413 162.617 104.461 163.049 104.547 163.476H103.683L103.363 162.34H103.299C103.085 162.713 102.776 163.023 102.371 163.268C101.965 163.513 101.491 163.636 100.947 163.636C99.88 163.636 99.0853 163.3 98.5626 162.628C98.0506 161.956 97.7946 160.905 97.7946 159.476C97.7946 158.111 98.1146 157.076 98.7546 156.372C99.4053 155.657 100.296 155.3 101.427 155.3C101.821 155.3 102.131 155.321 102.355 155.364C102.589 155.407 102.84 155.476 103.107 155.572V152.244H104.387V160.692ZM101.155 162.516C101.699 162.516 102.131 162.377 102.451 162.1C102.771 161.812 102.989 161.38 103.107 160.804V156.836C102.915 156.687 102.696 156.58 102.451 156.516C102.205 156.452 101.88 156.42 101.475 156.42C100.739 156.42 100.163 156.665 99.7466 157.156C99.3306 157.636 99.1226 158.409 99.1226 159.476C99.1226 159.913 99.1546 160.319 99.2186 160.692C99.2933 161.065 99.4106 161.385 99.5706 161.652C99.7306 161.919 99.9386 162.132 100.195 162.292C100.461 162.441 100.781 162.516 101.155 162.516Z" fill="#7E7D78"/>
<path d="M106.724 156.036C107.129 155.791 107.599 155.609 108.132 155.492C108.676 155.375 109.241 155.316 109.828 155.316C110.383 155.316 110.825 155.391 111.156 155.54C111.497 155.689 111.753 155.887 111.924 156.132C112.105 156.367 112.223 156.628 112.276 156.916C112.34 157.204 112.372 157.492 112.372 157.78C112.372 158.42 112.356 159.044 112.324 159.652C112.292 160.26 112.276 160.836 112.276 161.38C112.276 161.775 112.292 162.148 112.324 162.5C112.356 162.852 112.415 163.177 112.5 163.476H111.556L111.22 162.356H111.14C111.044 162.505 110.921 162.655 110.772 162.804C110.633 162.943 110.463 163.071 110.26 163.188C110.057 163.295 109.823 163.385 109.556 163.46C109.289 163.535 108.985 163.572 108.644 163.572C108.303 163.572 107.983 163.519 107.684 163.412C107.396 163.305 107.145 163.156 106.932 162.964C106.719 162.761 106.548 162.521 106.42 162.244C106.303 161.967 106.244 161.652 106.244 161.3C106.244 160.831 106.34 160.441 106.532 160.132C106.724 159.812 106.991 159.561 107.332 159.38C107.684 159.188 108.1 159.055 108.58 158.98C109.071 158.895 109.609 158.852 110.196 158.852C110.345 158.852 110.489 158.852 110.628 158.852C110.777 158.852 110.927 158.863 111.076 158.884C111.108 158.564 111.124 158.276 111.124 158.02C111.124 157.433 111.007 157.023 110.772 156.788C110.537 156.553 110.111 156.436 109.492 156.436C109.311 156.436 109.113 156.452 108.9 156.484C108.697 156.505 108.484 156.543 108.26 156.596C108.047 156.639 107.839 156.697 107.636 156.772C107.444 156.836 107.273 156.911 107.124 156.996L106.724 156.036ZM108.996 162.452C109.295 162.452 109.561 162.415 109.796 162.34C110.031 162.255 110.233 162.153 110.404 162.036C110.575 161.908 110.713 161.769 110.82 161.62C110.937 161.471 111.023 161.327 111.076 161.188V159.86C110.927 159.849 110.772 159.844 110.612 159.844C110.463 159.833 110.313 159.828 110.164 159.828C109.833 159.828 109.508 159.849 109.188 159.892C108.879 159.924 108.601 159.993 108.356 160.1C108.121 160.196 107.929 160.335 107.78 160.516C107.641 160.687 107.572 160.905 107.572 161.172C107.572 161.545 107.705 161.855 107.972 162.1C108.239 162.335 108.58 162.452 108.996 162.452Z" fill="#7E7D78"/>
</svg>
